<svg width="70" height="73" viewBox="0 0 70 73" fill="none" xmlns="http://www.w3.org/2000/svg">
<g opacity="0.5">
<path d="M16.4617 61.4374C16.7577 63.3478 17.0654 65.0861 17.3221 66.4599C17.6867 68.3922 19.0604 69.9438 21.0044 70.237C22.5298 70.4688 24.6488 70.6686 27.4167 70.6686C30.049 70.6686 32.2117 70.4878 33.8581 70.272C36.1681 69.9686 37.7869 68.0465 38.0377 65.7307L38.5058 61.4111" fill="white"/>
<path d="M16.4617 61.4374C16.7577 63.3478 17.0654 65.0861 17.3221 66.4599C17.6867 68.3922 19.0604 69.9438 21.0044 70.237C22.5298 70.4688 24.6488 70.6686 27.4167 70.6686C30.049 70.6686 32.2117 70.4878 33.8581 70.272C36.1681 69.9686 37.7869 68.0465 38.0377 65.7307L38.5058 61.4111" stroke="#1C274C" stroke-width="4" stroke-linecap="round" stroke-linejoin="round"/>
</g>
<g opacity="0.5">
<path d="M36.8958 7.29535C33.8904 6.0522 30.6691 5.41439 27.4167 5.41848C13.7244 5.41848 2.625 16.5179 2.625 30.2101C2.625 38.1333 6.34229 45.1887 12.1275 49.727C12.5536 51.4312 13.0258 53.1235 13.5435 54.802C13.9912 56.2574 15.2002 57.3147 16.7154 57.4737C18.7469 57.6852 22.1725 57.9185 27.4167 57.9185C32.6608 57.9185 36.0864 57.6852 38.1179 57.4737C39.6331 57.3147 40.8421 56.2574 41.2883 54.8006C41.7069 53.4399 42.2362 51.6214 42.7058 49.727C46.3867 46.8421 49.1789 42.9773 50.7617 38.5766" fill="white"/>
<path d="M36.8958 7.29535C33.8904 6.0522 30.6691 5.41439 27.4167 5.41848C13.7244 5.41848 2.625 16.5179 2.625 30.2101C2.625 38.1333 6.34229 45.1887 12.1275 49.727C12.5536 51.4312 13.0258 53.1235 13.5435 54.802C13.9912 56.2574 15.2002 57.3147 16.7154 57.4737C18.7469 57.6852 22.1725 57.9185 27.4167 57.9185C32.6608 57.9185 36.0865 57.6852 38.1179 57.4737C39.6331 57.3147 40.8421 56.2574 41.2883 54.8006C41.7069 53.4399 42.2362 51.6214 42.7058 49.727C46.3867 46.8421 49.1789 42.9773 50.7617 38.5766" stroke="#1C274C" stroke-width="4" stroke-linecap="round" stroke-linejoin="round"/>
</g>
<path d="M51.6585 3.38262C51.7842 3.15326 51.9692 2.96191 52.1942 2.82862C52.4192 2.69533 52.676 2.625 52.9375 2.625C53.199 2.625 53.4557 2.69533 53.6808 2.82862C53.9058 2.96191 54.0908 3.15326 54.2165 3.38262L57.1215 8.69387C57.9244 10.162 59.1315 11.369 60.5996 12.172L65.9108 15.077C66.1402 15.2027 66.3315 15.3877 66.4648 15.6127C66.5981 15.8377 66.6684 16.0944 66.6684 16.356C66.6684 16.6175 66.5981 16.8742 66.4648 17.0992C66.3315 17.3242 66.1402 17.5092 65.9108 17.6349L60.5996 20.5399C59.1315 21.3429 57.9244 22.5499 57.1215 24.018L54.2165 29.3293C54.0908 29.5586 53.9058 29.75 53.6808 29.8833C53.4557 30.0166 53.199 30.0869 52.9375 30.0869C52.676 30.0869 52.4192 30.0166 52.1942 29.8833C51.9692 29.75 51.7842 29.5586 51.6585 29.3293L48.7535 24.018C47.9506 22.5499 46.7435 21.3429 45.2754 20.5399L39.9642 17.6349C39.7348 17.5092 39.5435 17.3242 39.4102 17.0992C39.2769 16.8742 39.2065 16.6175 39.2065 16.356C39.2065 16.0944 39.2769 15.8377 39.4102 15.6127C39.5435 15.3877 39.7348 15.2027 39.9642 15.077L45.2754 12.172C46.7435 11.369 47.9506 10.162 48.7535 8.69387L51.6585 3.38262Z" fill="white" stroke="#1C274C" stroke-width="4"/>
</svg>
