<svg width="44" height="45" viewBox="0 0 44 45" fill="none" xmlns="http://www.w3.org/2000/svg">
<path d="M41.6446 22.2023H3.78125V9.69596C3.78288 8.87771 4.10861 8.09343 4.68714 7.51477C5.26567 6.93612 6.04987 6.61022 6.86812 6.6084H8.64394V9.56465C8.64394 9.74698 8.71637 9.92185 8.8453 10.0508C8.97423 10.1797 9.1491 10.2521 9.33144 10.2521H18.7804C18.9628 10.2521 19.1376 10.1797 19.2666 10.0508C19.3955 9.92185 19.4679 9.74698 19.4679 9.56465V5.9209C19.4679 5.73856 19.3955 5.56369 19.2666 5.43476C19.1376 5.30583 18.9628 5.2334 18.7804 5.2334H6.86675C5.68406 5.23558 4.55047 5.70651 3.71438 6.54299C2.87829 7.37947 2.40789 8.51327 2.40625 9.69596V28.2688C2.40835 30.1446 2.90259 31.9871 3.83961 33.6121C4.77663 35.2371 6.12363 36.5879 7.74606 37.5294V41.7431C7.74606 41.9254 7.8185 42.1003 7.94743 42.2292C8.07636 42.3582 8.25123 42.4306 8.43356 42.4306H13.5211C13.7034 42.4306 13.8783 42.3582 14.0072 42.2292C14.1361 42.1003 14.2086 41.9254 14.2086 41.7431V38.9931H30.5291V41.7431C30.5291 41.9254 30.6016 42.1003 30.7305 42.2292C30.8594 42.3582 31.0343 42.4306 31.2166 42.4306H36.3041C36.4865 42.4306 36.6613 42.3582 36.7903 42.2292C36.9192 42.1003 36.9916 41.9254 36.9916 41.7431V37.5294C38.6143 36.588 39.9616 35.2374 40.8989 33.6123C41.8361 31.9873 42.3306 30.1447 42.3328 28.2688V22.8898C42.3328 22.7994 42.315 22.71 42.2804 22.6265C42.2458 22.5431 42.1951 22.4672 42.1312 22.4034C42.0673 22.3395 41.9914 22.2889 41.9079 22.2544C41.8244 22.2199 41.735 22.2022 41.6446 22.2023ZM14.5509 6.6084H18.0929V8.87715H10.0176V6.6084H14.5509ZM40.9571 26.3919H3.78125V23.5731H40.9571V26.3919ZM9.12106 41.0556V38.2086C10.3026 38.6849 11.56 38.9454 12.8336 38.978V41.0556H9.12106ZM35.6159 41.0556H31.9034V38.978C33.1769 38.9453 34.4343 38.6847 35.6159 38.2086V41.0556ZM31.6078 37.6181H13.1313C10.6524 37.6154 8.27591 36.6295 6.52306 34.8768C4.7702 33.124 3.78416 30.7476 3.78125 28.2688V27.7669H40.9571V28.2667C40.9549 30.7458 39.9693 33.1228 38.2165 34.876C36.4637 36.6292 34.0869 37.6154 31.6078 37.6181Z" fill="black"/>
<path d="M31.6078 33.1206V34.4956C32.7521 34.4972 33.8746 34.1827 34.8515 33.5866C35.8283 32.9906 36.6215 32.1363 37.1435 31.1179L35.9219 30.4868C35.5152 31.2807 34.8972 31.9467 34.1359 32.4115C33.3746 32.8763 32.4997 33.1217 31.6078 33.1206Z" fill="black"/>
<path d="M10.0176 12.0254H8.64258V17.3267H10.0176V12.0254Z" fill="black"/>
<path d="M19.468 12.0254H18.093V17.3267H19.468V12.0254Z" fill="black"/>
<path d="M14.7427 12.0254H13.3677V17.3267H14.7427V12.0254Z" fill="black"/>
</svg>
