<svg width="44" height="45" viewBox="0 0 44 45" fill="none" xmlns="http://www.w3.org/2000/svg">
<g clip-path="url(#clip0_472_1638)">
<path d="M27.5 35.9482C27.5 37.7717 26.7757 39.5203 25.4865 40.8097C24.1971 42.0989 22.4484 42.8232 20.625 42.8232C18.8016 42.8232 17.053 42.0989 15.7636 40.8097C14.4743 39.5203 13.75 37.7717 13.75 35.9482V1.57324H27.5V35.9482Z" stroke="black" stroke-width="2.5" stroke-linecap="round" stroke-linejoin="round"/>
<path d="M31.625 1.57324H9.625" stroke="black" stroke-width="1.5" stroke-linecap="round" stroke-linejoin="round"/>
<path d="M27.5 9.82324H13.75" stroke="black" stroke-width="1.5" stroke-linecap="round" stroke-linejoin="round"/>
<path d="M2.75 23.5732H8.25" stroke="black" stroke-width="2.5" stroke-linecap="round" stroke-linejoin="round"/>
<path d="M5.5 20.8232V26.3232" stroke="black" stroke-width="1.5" stroke-linecap="round" stroke-linejoin="round"/>
<path d="M38.5 12.5732C40.0187 12.5732 41.25 11.342 41.25 9.82324C41.25 8.30445 40.0187 7.07324 38.5 7.07324C36.9813 7.07324 35.75 8.30445 35.75 9.82324C35.75 11.342 36.9813 12.5732 38.5 12.5732Z" stroke="black" stroke-width="2.5" stroke-linecap="round" stroke-linejoin="round"/>
<path d="M22.6875 16.6982C22.3078 16.6982 22 16.3904 22 16.0107C22 15.631 22.3078 15.3232 22.6875 15.3232" stroke="black" stroke-width="1.5"/>
<path d="M22.6875 16.6982C23.0672 16.6982 23.375 16.3904 23.375 16.0107C23.375 15.631 23.0672 15.3232 22.6875 15.3232" stroke="black" stroke-width="1.5"/>
<path d="M18.5625 24.9482C18.1828 24.9482 17.875 24.6404 17.875 24.2607C17.875 23.8811 18.1828 23.5732 18.5625 23.5732" stroke="black" stroke-width="1.5"/>
<path d="M18.5625 24.9482C18.9422 24.9482 19.25 24.6404 19.25 24.2607C19.25 23.8811 18.9422 23.5732 18.5625 23.5732" stroke="black" stroke-width="1.5"/>
<path d="M21.3125 33.1982C20.9328 33.1982 20.625 32.8904 20.625 32.5107C20.625 32.1311 20.9328 31.8232 21.3125 31.8232" stroke="black" stroke-width="1.5"/>
<path d="M21.3125 33.1982C21.6922 33.1982 22 32.8904 22 32.5107C22 32.1311 21.6922 31.8232 21.3125 31.8232" stroke="black" stroke-width="1.5"/>
</g>
<defs>
<clipPath id="clip0_472_1638">
<rect width="44" height="44" fill="white" transform="translate(0 0.198242)"/>
</clipPath>
</defs>
</svg>
