<svg width="44" height="45" viewBox="0 0 44 45" fill="none" xmlns="http://www.w3.org/2000/svg">
<path fill-rule="evenodd" clip-rule="evenodd" d="M25.3111 5.27173C23.5063 3.39608 20.4936 3.39608 18.6889 5.27173L18.2051 5.7745H13.75C11.2244 5.7745 9.16663 7.8101 9.16663 10.3338V30.4723C9.16663 32.996 11.2244 35.0317 13.75 35.0317H16.5V36.865H21.0833V40.5317H22.9166V36.865H27.5V35.0317H30.25C32.7756 35.0317 34.8333 32.9961 34.8333 30.4723V21.2817H33V25.4422C32.7453 25.2448 32.4623 25.0494 32.1519 24.8688C30.4792 23.8953 28.0596 23.3888 25.2009 25.0755C22.847 26.4642 20.6331 26.84 18.2249 26.8912C17.1518 26.914 16.0547 26.8725 14.8784 26.8279C14.718 26.8218 14.5556 26.8157 14.3921 26.8097C13.3215 26.7702 12.1932 26.7356 11 26.755V10.3338C11 8.83397 12.2255 7.60783 13.75 7.60783H18.5952C18.8444 7.60783 19.0829 7.50634 19.2557 7.32674L20.01 6.54288C21.0935 5.41681 22.9065 5.41681 23.99 6.54288L24.7442 7.32674C24.917 7.50634 25.1555 7.60783 25.4047 7.60783H30.5526C31.91 7.60783 33 8.69935 33 10.0331V13.9483H34.8333V10.0331C34.8333 7.67548 32.911 5.7745 30.5526 5.7745H25.7948L25.3111 5.27173ZM14.3244 28.6418C13.2494 28.6021 12.1503 28.569 11 28.5886V30.4723C11 31.9722 12.2255 33.1983 13.75 33.1983H30.25C31.7745 33.1983 33 31.9722 33 30.4723V28.0004C32.9195 27.8987 32.8086 27.7663 32.6692 27.6166C32.3333 27.2562 31.8456 26.8117 31.2298 26.4533C30.0436 25.7631 28.3383 25.353 26.1324 26.6544C23.4217 28.2537 20.8688 28.6687 18.2639 28.7241C17.1324 28.7482 15.977 28.7043 14.807 28.6599C14.6464 28.6538 14.4856 28.6477 14.3244 28.6418Z" fill="#333333"/>
<path fill-rule="evenodd" clip-rule="evenodd" d="M16.9584 13.0315C17.3226 13.0315 17.6522 13.247 17.7982 13.5807L20.1964 19.0623C20.2022 19.0747 20.2077 19.0873 20.2129 19.0999L21.0066 20.914C21.2094 21.3778 20.9979 21.9183 20.5341 22.1213C20.0703 22.3242 19.5298 22.1126 19.3269 21.6489L18.7651 20.3648H15.1516L14.5899 21.6489C14.3869 22.1126 13.8465 22.3242 13.3826 22.1213C12.9188 21.9183 12.7073 21.3778 12.9102 20.914L13.7038 19.0999L13.7059 19.0952C13.7104 19.0842 13.7153 19.0732 13.7203 19.0623L16.1185 13.5807C16.2645 13.247 16.5942 13.0315 16.9584 13.0315ZM17.963 18.5315L16.9584 16.2351L15.9537 18.5315H17.963ZM22.9167 13.0315C22.4104 13.0315 22 13.4419 22 13.9482V21.2815C22 21.5246 22.0967 21.7577 22.2685 21.9297C22.4404 22.1015 22.6736 22.1982 22.9167 22.1982H25.7813C27.2916 22.1982 28.4167 20.9102 28.4167 19.4482C28.4167 18.7596 28.1672 18.1097 27.7455 17.6148C28.1672 17.1198 28.4167 16.47 28.4167 15.7815C28.4167 14.3193 27.2916 13.0315 25.7813 13.0315H22.9167ZM26.5834 15.7815C26.5834 16.3443 26.1694 16.6982 25.7813 16.6982H23.8334V14.8648H25.7813C26.1694 14.8648 26.5834 15.2186 26.5834 15.7815ZM26.5834 19.4482C26.5834 18.8852 26.1694 18.5315 25.7813 18.5315H23.8334V20.3648H25.7813C26.1694 20.3648 26.5834 20.011 26.5834 19.4482Z" fill="#333333"/>
<path d="M29.3334 17.615C29.3334 17.1087 29.7438 16.6983 30.25 16.6983H31.1667V15.7817C31.1667 15.2754 31.5771 14.865 32.0834 14.865C32.5896 14.865 33 15.2754 33 15.7817V16.6983H33.9167C34.423 16.6983 34.8334 17.1087 34.8334 17.615C34.8334 18.1212 34.423 18.5317 33.9167 18.5317H33V19.4483C33 19.9545 32.5896 20.365 32.0834 20.365C31.5771 20.365 31.1667 19.9545 31.1667 19.4483V18.5317H30.25C29.7438 18.5317 29.3334 18.1212 29.3334 17.615Z" fill="#333333"/>
</svg>
