<svg width="44" height="45" viewBox="0 0 44 45" fill="none" xmlns="http://www.w3.org/2000/svg">
<path d="M7.5625 36.6357C6.42813 36.6357 5.5 37.5639 5.5 38.6982C5.5 39.8326 6.42813 40.7607 7.5625 40.7607C8.69688 40.7607 9.625 39.8326 9.625 38.6982C9.625 37.5639 8.69688 36.6357 7.5625 36.6357ZM7.5625 39.3857C7.18438 39.3857 6.875 39.0764 6.875 38.6982C6.875 38.3201 7.18438 38.0107 7.5625 38.0107C7.94062 38.0107 8.25 38.3201 8.25 38.6982C8.25 39.0764 7.94062 39.3857 7.5625 39.3857Z" fill="black"/>
<path d="M12.375 38.6982C13.1344 38.6982 13.75 38.0826 13.75 37.3232C13.75 36.5639 13.1344 35.9482 12.375 35.9482C11.6156 35.9482 11 36.5639 11 37.3232C11 38.0826 11.6156 38.6982 12.375 38.6982Z" fill="black"/>
<path d="M14.4375 39.3857C14.0594 39.3857 13.75 39.6951 13.75 40.0732C13.75 40.4514 14.0594 40.7607 14.4375 40.7607C14.8156 40.7607 15.125 40.4514 15.125 40.0732C15.125 39.6951 14.8156 39.3857 14.4375 39.3857ZM18.5625 31.8232C17.4281 31.8232 16.5 32.7514 16.5 33.8857C16.5 35.0201 17.4281 35.9482 18.5625 35.9482C19.6969 35.9482 20.625 35.0201 20.625 33.8857C20.625 32.7514 19.6969 31.8232 18.5625 31.8232ZM18.5625 34.5732C18.1844 34.5732 17.875 34.2639 17.875 33.8857C17.875 33.5076 18.1844 33.1982 18.5625 33.1982C18.9406 33.1982 19.25 33.5076 19.25 33.8857C19.25 34.2639 18.9406 34.5732 18.5625 34.5732Z" fill="black"/>
<path d="M23.375 34.5732C24.1344 34.5732 24.75 33.9576 24.75 33.1982C24.75 32.4389 24.1344 31.8232 23.375 31.8232C22.6156 31.8232 22 32.4389 22 33.1982C22 33.9576 22.6156 34.5732 23.375 34.5732Z" fill="black"/>
<path d="M22.6875 36.6357C21.5531 36.6357 20.625 37.5639 20.625 38.6982C20.625 39.8326 21.5531 40.7607 22.6875 40.7607C23.8219 40.7607 24.75 39.8326 24.75 38.6982C24.75 37.5639 23.8219 36.6357 22.6875 36.6357ZM22.6875 39.3857C22.3094 39.3857 22 39.0764 22 38.6982C22 38.3201 22.3094 38.0107 22.6875 38.0107C23.0656 38.0107 23.375 38.3201 23.375 38.6982C23.375 39.0764 23.0656 39.3857 22.6875 39.3857ZM29.5625 31.8232C29.5625 30.6889 28.6344 29.7607 27.5 29.7607C26.3656 29.7607 25.4375 30.6889 25.4375 31.8232C25.4375 32.9576 26.3656 33.8857 27.5 33.8857C28.6344 33.8857 29.5625 32.9576 29.5625 31.8232ZM26.8125 31.8232C26.8125 31.4451 27.1219 31.1357 27.5 31.1357C27.8781 31.1357 28.1875 31.4451 28.1875 31.8232C28.1875 32.2014 27.8781 32.5107 27.5 32.5107C27.1219 32.5107 26.8125 32.2014 26.8125 31.8232Z" fill="black"/>
<path d="M42.4875 23.1092C42.2727 22.6021 41.8774 22.2068 41.3703 21.992L36.2828 19.8951C35.2344 19.4654 34.0227 19.9639 33.593 21.0209C33.3867 21.5279 33.3867 22.0951 33.593 22.6021C33.7133 22.8943 33.8938 23.1436 34.1172 23.3412L31.7195 29.1764L31.4016 29.9498C31.393 29.9412 31.393 29.9326 31.3844 29.924C31.35 29.8553 31.3156 29.7951 31.2813 29.7264C31.2555 29.6748 31.2297 29.6318 31.2039 29.5803L31.1695 29.5201C31.1695 29.5201 31.1695 29.5115 31.1609 29.5115C31.1352 29.4686 31.1094 29.417 31.0836 29.374C31.0492 29.3139 31.0149 29.2623 30.9805 29.2107C30.9547 29.1764 30.9375 29.1334 30.9117 29.099L30.8945 29.0732C30.843 28.9873 30.7914 28.91 30.7313 28.8326C30.7313 28.8326 30.7313 28.824 30.7227 28.824L30.6969 28.7811C30.6797 28.7553 30.6625 28.7295 30.6453 28.7123C30.6024 28.6607 30.568 28.6006 30.525 28.549C30.4906 28.5061 30.4563 28.4631 30.4305 28.4201C30.3789 28.36 30.3359 28.2912 30.2844 28.2311C30.25 28.1881 30.207 28.1365 30.1727 28.0936C30.1727 28.0936 30.1727 28.085 30.1641 28.085C30.1211 28.0334 30.0695 27.9818 30.0266 27.9303C29.3734 27.1998 28.6086 26.5896 27.7578 26.1084C27.1649 25.7732 26.7953 25.1545 26.7953 24.4842V20.024C27.5945 19.7404 28.1703 18.9756 28.1703 18.0818C28.1703 16.9475 27.2422 16.0193 26.1078 16.0193H20.6078C19.4734 16.0193 18.5453 16.9475 18.5453 18.0818C18.5453 18.9756 19.1211 19.7404 19.9203 20.024V24.4842C19.9203 25.1545 19.5594 25.7732 18.975 26.0998C18.1242 26.5811 17.3594 27.1998 16.7063 27.9303C16.6633 27.9818 16.6117 28.0334 16.5774 28.0764C16.4914 28.1795 16.4055 28.2826 16.3195 28.3857C16.225 28.5061 16.1305 28.6264 16.0531 28.7467C16.0274 28.7811 16.0016 28.8154 15.9758 28.8498L15.9672 28.867C15.8899 28.9787 15.8211 29.0818 15.7609 29.185C15.7609 29.1936 15.7524 29.1936 15.7524 29.2021L15.7438 29.2107C15.7094 29.2623 15.675 29.3225 15.6492 29.374C15.6149 29.4342 15.5805 29.4857 15.5547 29.5459C15.5547 29.5545 15.5461 29.5631 15.5461 29.5717L15.5289 29.5975C15.5031 29.6404 15.4859 29.6834 15.4602 29.7264C15.4258 29.7865 15.3914 29.8467 15.3656 29.9068C15.2969 30.0443 15.2367 30.1732 15.1766 30.3107C15.1336 30.1217 15.1164 29.924 15.1164 29.7264V19.3279C15.9156 19.0443 16.4914 18.2795 16.4914 17.3857C16.4914 16.2514 15.5633 15.3232 14.4289 15.3232H8.92892C7.79454 15.3232 6.86642 16.2514 6.86642 17.3857C6.86642 18.2795 7.4422 19.0443 8.24142 19.3279V29.9412C8.24142 30.5686 8.06095 31.1701 7.75157 31.5568L6.22188 33.4475L2.00235 38.6639C1.37501 39.4373 1.2547 40.4686 1.68438 41.3709C2.11407 42.2646 2.99923 42.8232 3.98751 42.8232H19.5422C19.5852 42.8232 19.6367 42.8232 19.6797 42.8232C19.7141 42.8232 19.7484 42.8146 19.7914 42.8146C19.8172 42.8146 19.843 42.8061 19.8688 42.8061H19.8945C19.9203 42.8061 19.9461 42.7975 19.9719 42.7975C20.0063 42.7889 20.032 42.7889 20.0664 42.7803C20.0836 42.7803 20.1008 42.7717 20.118 42.7717C20.1266 42.7717 20.1438 42.7631 20.1524 42.7631C20.1695 42.7631 20.1953 42.7545 20.2211 42.7459C20.2555 42.7373 20.2899 42.7287 20.3328 42.7115C20.3672 42.7029 20.4016 42.6857 20.4274 42.6771C20.4617 42.6686 20.4875 42.6514 20.5219 42.6428C20.5219 42.6428 20.5305 42.6342 20.5391 42.6342C20.5649 42.6256 20.582 42.617 20.6078 42.5998C20.6164 42.5912 20.6336 42.5912 20.6422 42.5826C20.668 42.5654 20.6938 42.5568 20.7195 42.5396C20.7539 42.5225 20.7797 42.5053 20.8055 42.4881C20.8141 42.4795 20.8227 42.4795 20.8313 42.4709C21.6047 42.7029 22.4039 42.8232 23.2203 42.8318C23.2633 42.8318 23.3063 42.8318 23.3406 42.8318C25.1281 42.8318 26.8727 42.2904 28.3422 41.3021C28.7203 41.8693 29.2531 42.3076 29.8891 42.574C30.3102 42.7459 30.757 42.8318 31.1953 42.8318C31.6422 42.8318 32.0891 42.7459 32.5188 42.5654C33.1203 42.3162 33.6274 41.9123 33.9969 41.3881C34.0914 41.2506 34.1774 41.1131 34.2547 40.9584C34.2633 40.9412 34.2719 40.9326 34.2719 40.9154C34.3063 40.8467 34.3406 40.7693 34.375 40.7006L40.4766 25.9623C40.5109 25.9623 40.5453 25.9623 40.5797 25.9623C41.3875 25.9623 42.1609 25.4811 42.4875 24.6818C42.7024 24.1834 42.7024 23.6162 42.4875 23.1092ZM20.625 17.3857H26.125C26.5031 17.3857 26.8125 17.6951 26.8125 18.0732C26.8125 18.4514 26.5031 18.7607 26.125 18.7607H20.625C20.2469 18.7607 19.9375 18.4514 19.9375 18.0732C19.9375 17.6951 20.2469 17.3857 20.625 17.3857ZM19.6625 27.2943C20.6766 26.7186 21.3125 25.6443 21.3125 24.4842V20.1357H25.4375V24.4842C25.4375 25.6443 26.0734 26.7271 27.0961 27.3029C27.3109 27.4232 27.5172 27.5607 27.7234 27.6982H19.0266C19.2328 27.5521 19.4477 27.4146 19.6625 27.2943ZM8.93751 16.6982H14.4375C14.8156 16.6982 15.125 17.0076 15.125 17.3857C15.125 17.7639 14.8156 18.0732 14.4375 18.0732H8.93751C8.55938 18.0732 8.25001 17.7639 8.25001 17.3857C8.25001 17.0076 8.55938 16.6982 8.93751 16.6982ZM8.82579 32.4248C9.54766 31.5396 9.62501 30.3967 9.62501 29.9498V19.4482H13.75V29.7178C13.75 30.6287 14.0422 31.5311 14.5836 32.2615V32.2701C14.575 32.3131 14.5664 32.3475 14.5578 32.3904C14.532 32.5365 14.5149 32.6912 14.4891 32.8545C14.4805 32.9146 14.4805 32.9662 14.4719 33.0264C14.4633 33.0865 14.4633 33.1381 14.4547 33.1982H8.19845L8.82579 32.4248ZM2.93048 40.7779C2.73282 40.3568 2.78438 39.8928 3.07657 39.5318L7.08985 34.5732H14.4633C14.6781 37.4178 16.2422 39.9529 18.6227 41.4482H3.98751C3.52345 41.4482 3.12813 41.199 2.93048 40.7779ZM23.2633 41.4482C22.4813 41.4396 21.6992 41.3021 20.9602 41.0529C17.875 40.0045 15.8039 37.1256 15.8039 33.8857C15.8039 33.8256 15.8039 33.7654 15.8039 33.6967C15.8039 33.6451 15.8039 33.5936 15.8125 33.542C15.8211 33.4217 15.8297 33.2928 15.8383 33.1553V33.1467C15.8383 33.1037 15.8469 33.0607 15.8555 33.0178C15.8727 32.8803 15.8899 32.7514 15.907 32.6311V32.6225C15.9156 32.5967 15.9156 32.5709 15.9242 32.5365L15.9414 32.4678C15.95 32.4076 15.9586 32.3561 15.9758 32.3045C15.9758 32.2959 15.9758 32.2959 15.9758 32.2873L16.0102 32.1412C16.0188 32.0896 16.0359 32.0381 16.0531 31.9865C16.0703 31.9178 16.0875 31.8576 16.1133 31.7803C16.1219 31.7459 16.1305 31.7115 16.1477 31.6771L16.1563 31.6428C16.1563 31.6342 16.1649 31.6256 16.1649 31.617C16.182 31.574 16.1906 31.5311 16.2078 31.4967C16.2078 31.4881 16.2078 31.4881 16.2164 31.4795C16.2336 31.4279 16.2508 31.3764 16.268 31.3248V31.3162C16.2852 31.2646 16.3024 31.2217 16.3195 31.1701C16.3195 31.1701 16.3195 31.1615 16.3281 31.1615C16.3453 31.11 16.3711 31.0584 16.3883 31.0068C16.457 30.8521 16.5258 30.6975 16.6031 30.5342C16.6289 30.4912 16.6461 30.4396 16.6719 30.3967C16.6719 30.3967 16.6719 30.3881 16.6805 30.3881C16.6977 30.3537 16.7149 30.3193 16.7406 30.285L16.7492 30.2678C16.7492 30.2592 16.7578 30.2506 16.7578 30.2506C16.7578 30.242 16.7664 30.242 16.7664 30.2334C16.7922 30.1904 16.818 30.1475 16.8438 30.0959C16.8438 30.0873 16.8524 30.0873 16.8524 30.0787C16.8781 30.0357 16.8953 30.0014 16.9211 29.9584C16.9297 29.9498 16.9383 29.9326 16.9383 29.924C16.9899 29.8381 17.05 29.7521 17.1102 29.6662L17.1188 29.649C17.1359 29.6232 17.1617 29.5889 17.1875 29.5545C17.2563 29.4514 17.3336 29.3568 17.4109 29.2537C17.4109 29.2537 17.4109 29.2451 17.4195 29.2451C17.4625 29.1936 17.4969 29.142 17.5399 29.0904H29.2016C29.2102 29.099 29.2188 29.1076 29.2274 29.1162C29.2703 29.1678 29.3047 29.2193 29.3477 29.2709C29.3734 29.3053 29.3992 29.3396 29.425 29.374C29.425 29.3826 29.4336 29.3826 29.4336 29.3912C29.468 29.4342 29.4938 29.4771 29.5281 29.5201C29.5453 29.5373 29.5539 29.5631 29.5711 29.5803L29.5969 29.6232C29.6399 29.692 29.6914 29.7607 29.7344 29.8295L29.7516 29.8553C29.7688 29.8811 29.7859 29.9154 29.8031 29.9412C29.8031 29.9412 29.8031 29.9498 29.8117 29.9498C29.8375 29.9928 29.8719 30.0443 29.8977 30.0873C29.8977 30.0959 29.9063 30.0959 29.9063 30.1045C29.9234 30.1389 29.9492 30.1732 29.9664 30.2076L30.0008 30.2678C30.0266 30.3107 30.0438 30.3451 30.0695 30.3967C30.0953 30.4482 30.1297 30.5084 30.1555 30.5686C30.1813 30.6115 30.1984 30.6631 30.2242 30.6975C30.2586 30.7748 30.3016 30.8607 30.3359 30.9467L30.3445 30.9553C30.3531 30.9811 30.3703 31.0068 30.3789 31.0326C30.3789 31.0412 30.3789 31.0412 30.3875 31.0498C30.4219 31.1271 30.4477 31.2045 30.482 31.2904L30.4906 31.3248C30.4992 31.342 30.5078 31.3592 30.5078 31.3764C30.5078 31.385 30.5078 31.385 30.5164 31.3936C30.5422 31.4795 30.5766 31.5568 30.6024 31.6428C30.6109 31.6686 30.6195 31.6943 30.6281 31.7287C30.6367 31.7631 30.6453 31.7975 30.6539 31.8232L28.8234 36.2662C28.6516 35.7076 28.1274 35.2951 27.5086 35.2951C26.7524 35.2951 26.1336 35.9139 26.1336 36.6701C26.1336 37.4264 26.7524 38.0451 27.5086 38.0451C27.7406 38.0451 27.9641 37.985 28.1617 37.8818L28.0672 38.1139C27.818 38.724 27.7492 39.3857 27.8609 40.0217C26.5289 40.9498 24.9133 41.4654 23.2633 41.4482ZM29.3305 40.1764C29.1156 39.6693 29.1156 39.1107 29.3305 38.5951L32.7336 30.3279L36.5492 31.9006L33.1461 40.1678C33.1203 40.2279 33.0945 40.2881 33.0602 40.3482C33.0602 40.3482 33.0602 40.3568 33.0516 40.3568C33.0258 40.4084 32.9914 40.46 32.957 40.5115C32.9484 40.5201 32.9484 40.5287 32.9399 40.5373C32.9141 40.5803 32.8797 40.6232 32.8453 40.6662C32.8367 40.6834 32.8195 40.692 32.8109 40.7092C32.7852 40.7436 32.7508 40.7779 32.7164 40.8123C32.6992 40.8295 32.682 40.8467 32.6649 40.8725C32.6391 40.8982 32.6047 40.924 32.5789 40.9498C32.5531 40.967 32.5359 40.9928 32.5102 41.01C32.4844 41.0357 32.45 41.0529 32.4242 41.0787C32.3984 41.0959 32.3727 41.1131 32.3555 41.1303C32.3211 41.1561 32.2867 41.1732 32.2524 41.1904C32.2266 41.199 32.2094 41.2162 32.1836 41.2248C32.1406 41.242 32.0977 41.2678 32.0633 41.285C31.6336 41.474 31.1352 41.517 30.6625 41.3795H30.6539C30.6281 41.3709 30.6024 41.3623 30.5766 41.3537C30.568 41.3537 30.5594 41.3451 30.5508 41.3451C30.5164 41.3365 30.482 41.3193 30.4563 41.3107C29.9406 41.0787 29.5453 40.6834 29.3305 40.1764ZM37.0649 30.6373L33.2492 29.0646L35.3461 23.9771L37.2539 24.7592L39.1617 25.5412L37.0649 30.6373ZM41.2156 24.1662C41.0695 24.5186 40.6656 24.6818 40.3219 24.5443L35.2344 22.4475C35.0625 22.3787 34.9336 22.2498 34.8649 22.0779C34.7961 21.9061 34.7961 21.7256 34.8649 21.5537C35.0109 21.2014 35.4149 21.0381 35.7586 21.1756L40.8461 23.2725C41.1984 23.41 41.3617 23.8139 41.2156 24.1662Z" fill="black"/>
<path d="M32.957 34.092C33.3352 34.092 33.6445 33.7826 33.6445 33.4045C33.6445 33.0264 33.3352 32.717 32.957 32.717C32.5789 32.717 32.2695 33.0264 32.2695 33.4045C32.2695 33.7826 32.5789 34.092 32.957 34.092ZM33.4383 35.149C33.0602 35.149 32.7508 35.4584 32.7508 35.8365C32.7508 36.2146 33.0602 36.524 33.4383 36.524C33.8164 36.524 34.1258 36.2146 34.1258 35.8365C34.1258 35.4498 33.825 35.149 33.4383 35.149ZM31.3844 37.9076C31.7625 37.9076 32.0719 37.5982 32.0719 37.2201C32.0719 36.842 31.7625 36.5326 31.3844 36.5326C31.0063 36.5326 30.6969 36.842 30.6969 37.2201C30.6969 37.5982 31.0063 37.9076 31.3844 37.9076ZM34.7531 33.3443C35.1313 33.3443 35.4406 33.035 35.4406 32.6568C35.4406 32.2787 35.1313 31.9693 34.7531 31.9693C34.375 31.9693 34.0656 32.2787 34.0656 32.6568C34.0656 33.035 34.375 33.3443 34.7531 33.3443ZM8.25 13.9482C9.38438 13.9482 10.3125 13.0201 10.3125 11.8857C10.3125 10.7514 9.38438 9.82324 8.25 9.82324C7.11563 9.82324 6.1875 10.7514 6.1875 11.8857C6.1875 13.0201 7.11563 13.9482 8.25 13.9482ZM8.25 11.1982C8.62812 11.1982 8.9375 11.5076 8.9375 11.8857C8.9375 12.2639 8.62812 12.5732 8.25 12.5732C7.87188 12.5732 7.5625 12.2639 7.5625 11.8857C7.5625 11.5076 7.87188 11.1982 8.25 11.1982ZM13.0625 11.1982C14.1969 11.1982 15.125 10.2701 15.125 9.13574C15.125 8.00137 14.1969 7.07324 13.0625 7.07324C11.9281 7.07324 11 8.00137 11 9.13574C11 10.2701 11.9281 11.1982 13.0625 11.1982ZM13.0625 8.44824C13.4406 8.44824 13.75 8.75762 13.75 9.13574C13.75 9.51387 13.4406 9.82324 13.0625 9.82324C12.6844 9.82324 12.375 9.51387 12.375 9.13574C12.375 8.75762 12.6844 8.44824 13.0625 8.44824ZM8.25 5.69824C9.38438 5.69824 10.3125 4.77012 10.3125 3.63574C10.3125 2.50137 9.38438 1.57324 8.25 1.57324C7.11563 1.57324 6.1875 2.50137 6.1875 3.63574C6.1875 4.77012 7.11563 5.69824 8.25 5.69824ZM8.25 2.94824C8.62812 2.94824 8.9375 3.25762 8.9375 3.63574C8.9375 4.01387 8.62812 4.32324 8.25 4.32324C7.87188 4.32324 7.5625 4.01387 7.5625 3.63574C7.5625 3.25762 7.87188 2.94824 8.25 2.94824ZM20.625 13.9482C21.7594 13.9482 22.6875 13.0201 22.6875 11.8857C22.6875 10.7514 21.7594 9.82324 20.625 9.82324C19.4906 9.82324 18.5625 10.7514 18.5625 11.8857C18.5625 13.0201 19.4906 13.9482 20.625 13.9482ZM20.625 11.1982C21.0031 11.1982 21.3125 11.5076 21.3125 11.8857C21.3125 12.2639 21.0031 12.5732 20.625 12.5732C20.2469 12.5732 19.9375 12.2639 19.9375 11.8857C19.9375 11.5076 20.2469 11.1982 20.625 11.1982ZM25.4375 10.5107C24.3031 10.5107 23.375 11.4389 23.375 12.5732C23.375 13.7076 24.3031 14.6357 25.4375 14.6357C26.5719 14.6357 27.5 13.7076 27.5 12.5732C27.5 11.4389 26.5719 10.5107 25.4375 10.5107ZM25.4375 13.2607C25.0594 13.2607 24.75 12.9514 24.75 12.5732C24.75 12.1951 25.0594 11.8857 25.4375 11.8857C25.8156 11.8857 26.125 12.1951 26.125 12.5732C26.125 12.9514 25.8156 13.2607 25.4375 13.2607ZM22 8.44824C23.1344 8.44824 24.0625 7.52012 24.0625 6.38574C24.0625 5.25137 23.1344 4.32324 22 4.32324C20.8656 4.32324 19.9375 5.25137 19.9375 6.38574C19.9375 7.52012 20.8656 8.44824 22 8.44824ZM22 5.69824C22.3781 5.69824 22.6875 6.00762 22.6875 6.38574C22.6875 6.76387 22.3781 7.07324 22 7.07324C21.6219 7.07324 21.3125 6.76387 21.3125 6.38574C21.3125 6.00762 21.6219 5.69824 22 5.69824Z" fill="black"/>
<path d="M26.125 5.69824C26.8844 5.69824 27.5 5.08263 27.5 4.32324C27.5 3.56385 26.8844 2.94824 26.125 2.94824C25.3656 2.94824 24.75 3.56385 24.75 4.32324C24.75 5.08263 25.3656 5.69824 26.125 5.69824Z" fill="black"/>
<path d="M37.125 19.4482C38.2594 19.4482 39.1875 18.5201 39.1875 17.3857C39.1875 16.2514 38.2594 15.3232 37.125 15.3232C35.9906 15.3232 35.0625 16.2514 35.0625 17.3857C35.0625 18.5201 35.9906 19.4482 37.125 19.4482ZM37.125 16.6982C37.5031 16.6982 37.8125 17.0076 37.8125 17.3857C37.8125 17.7639 37.5031 18.0732 37.125 18.0732C36.7469 18.0732 36.4375 17.7639 36.4375 17.3857C36.4375 17.0076 36.7469 16.6982 37.125 16.6982Z" fill="black"/>
<path d="M37.8125 13.9482C38.5719 13.9482 39.1875 13.3326 39.1875 12.5732C39.1875 11.8139 38.5719 11.1982 37.8125 11.1982C37.0531 11.1982 36.4375 11.8139 36.4375 12.5732C36.4375 13.3326 37.0531 13.9482 37.8125 13.9482Z" fill="black"/>
<path d="M40.5625 16.6982C41.3219 16.6982 41.9375 16.0826 41.9375 15.3232C41.9375 14.5639 41.3219 13.9482 40.5625 13.9482C39.8031 13.9482 39.1875 14.5639 39.1875 15.3232C39.1875 16.0826 39.8031 16.6982 40.5625 16.6982Z" fill="black"/>
</svg>
