<svg width="44" height="45" viewBox="0 0 44 45" fill="none" xmlns="http://www.w3.org/2000/svg">
<g clip-path="url(#clip0_472_1678)">
<path d="M23.3702 25.5638V5.54718H36.5106C37.0089 5.54718 37.4128 5.14336 37.4128 4.64505C37.4128 4.14674 37.0089 3.74292 36.5106 3.74292H35.5404V0.90037C35.5404 0.402058 35.1366 -0.00175782 34.6383 -0.00175782H29.0213C28.523 -0.00175782 28.1191 0.402058 28.1191 0.90037V3.74292H7.48936C6.99105 3.74292 6.58723 4.14674 6.58723 4.64505C6.58723 5.14336 6.99105 5.54718 7.48936 5.54718H8.45957V25.5638C8.45957 25.6394 8.46907 25.7147 8.48783 25.7879L8.48785 25.788L12.6041 41.8317L12.7978 41.782L12.6041 41.8317C12.9919 43.343 14.3536 44.3982 15.9149 44.3982C17.4762 44.3982 18.8379 43.343 19.2257 41.8317L19.032 41.782L19.2257 41.8317L23.3419 25.788L23.342 25.7879C23.3607 25.7147 23.3702 25.6394 23.3702 25.5638ZM29.9234 1.8025H33.7362V3.74292H29.9234V1.8025ZM10.2638 25.45V5.54718H21.566V25.45L17.4781 41.3833C17.2952 42.0959 16.6526 42.594 15.9149 42.594C15.1772 42.594 14.5346 42.0959 14.3517 41.3833L10.2638 25.45Z" fill="black" stroke="black" stroke-width="0.4"/>
<path d="M12.4263 25.2655L15.2348 36.2122C15.3144 36.5226 15.5944 36.7398 15.9149 36.7398C16.2354 36.7398 16.5154 36.5227 16.595 36.2122L19.4035 25.2655C19.4181 25.2085 19.4255 25.1499 19.4255 25.091V21.5019C19.4255 21.1141 19.1113 20.7998 18.7234 20.7998C18.3356 20.7998 18.0213 21.1141 18.0213 21.5019V25.0024L15.9149 33.2122L13.8085 25.0023V15.8064H18.0213V18.6933C18.0213 19.0812 18.3356 19.3954 18.7234 19.3954C19.1113 19.3954 19.4255 19.0812 19.4255 18.6933V15.1042C19.4255 14.7164 19.1113 14.4021 18.7234 14.4021H13.1064C12.7185 14.4021 12.4043 14.7164 12.4043 15.1042V25.0909C12.4043 25.1498 12.4117 25.2084 12.4263 25.2655Z" fill="black"/>
</g>
<defs>
<clipPath id="clip0_472_1678">
<rect width="44" height="44" fill="white" transform="translate(0 0.198242)"/>
</clipPath>
</defs>
</svg>
