<svg width="203" height="52" viewBox="0 0 203 52" fill="none" xmlns="http://www.w3.org/2000/svg">
<path d="M65.9326 43.098V50.2269H64.524V47.1838H61.2265V50.2269H59.8059V43.098H61.2265V45.9788H64.536V43.098H65.9326Z" fill="#757575"/>
<path d="M79.6065 49.0137V50.231H74.5443V43.098H79.5145V44.3152H75.9609V46.0315H79.0223V47.1595H75.9609V49.0178L79.6065 49.0137Z" fill="#757575"/>
<path d="M89.7909 43.098H91.2395L93.9207 50.2269H92.4401L91.8358 48.4498H89.1546L88.5464 50.2269H87.0898L89.7909 43.098ZM91.5157 47.4719L90.5112 44.5303L89.5028 47.4719H91.5157Z" fill="#757575"/>
<path d="M101.804 50.2269V43.098H103.245V49.0137H106.962V50.231L101.804 50.2269Z" fill="#757575"/>
<path d="M119.284 44.3112H116.963V50.2269H115.554V44.3112H113.213V43.0939H119.284V44.3112Z" fill="#757575"/>
<path d="M133.426 43.098V50.2269H132.017V47.1838H128.708V50.2269H127.291V43.098H128.708V45.9788H132.017V43.098H133.426Z" fill="#757575"/>
<path d="M151.15 46.5996C151.153 45.6954 151.494 44.8261 152.102 44.1651C152.422 43.819 152.809 43.5429 153.238 43.3536C153.713 43.1411 154.228 43.0358 154.747 43.0452C155.356 43.03 155.959 43.1799 156.492 43.4794C156.953 43.7384 157.329 44.1292 157.572 44.6033L156.496 45.3377C156.388 45.0898 156.222 44.8725 156.012 44.7047C155.821 44.5537 155.604 44.4408 155.371 44.372C155.156 44.3061 154.932 44.272 154.707 44.2706C154.385 44.2642 154.067 44.3366 153.779 44.4816C153.523 44.6161 153.298 44.8042 153.118 45.0334C152.944 45.2631 152.809 45.521 152.718 45.7962C152.631 46.073 152.587 46.3618 152.586 46.6523C152.586 46.9582 152.638 47.2618 152.742 47.549C152.839 47.8327 152.986 48.0956 153.178 48.324C153.365 48.547 153.595 48.728 153.855 48.8555C154.126 48.987 154.423 49.0536 154.723 49.0502C154.954 49.0483 155.183 49.0114 155.403 48.9407C155.638 48.8661 155.856 48.7478 156.048 48.5918C156.254 48.4205 156.42 48.2041 156.532 47.9588L157.684 48.6202C157.528 48.9805 157.281 49.2927 156.968 49.525C156.64 49.7741 156.272 49.9636 155.88 50.0849C155.492 50.2116 155.087 50.2759 154.679 50.2756C154.186 50.2826 153.699 50.1743 153.254 49.9591C152.833 49.7557 152.455 49.4703 152.142 49.1192C151.828 48.7707 151.579 48.3681 151.406 47.9304C151.235 47.508 151.148 47.0559 151.15 46.5996Z" fill="#757575"/>
<path d="M167.613 43.098H169.053L171.734 50.2269H170.274L169.674 48.4498H166.992L166.384 50.2269H164.923L167.613 43.098ZM169.337 47.4719L168.333 44.5303L167.325 47.4719H169.337Z" fill="#757575"/>
<path d="M179.626 50.2269V43.098H182.879C183.197 43.0949 183.511 43.1628 183.8 43.2968C184.079 43.4274 184.33 43.6121 184.54 43.8405C184.744 44.0638 184.908 44.3221 185.024 44.6033C185.135 44.8776 185.192 45.1711 185.192 45.4675C185.194 45.7633 185.139 46.0567 185.032 46.3318C184.926 46.6065 184.765 46.8564 184.56 47.0662C184.362 47.2759 184.124 47.4417 183.86 47.5531L185.524 50.235H183.964L182.479 47.8371H181.062V50.2269H179.626ZM181.046 46.6198H182.823C182.993 46.6237 183.16 46.5694 183.295 46.4657C183.435 46.3591 183.548 46.22 183.624 46.0599C183.709 45.8789 183.751 45.6802 183.748 45.4797C183.751 45.2729 183.702 45.0687 183.604 44.8873C183.515 44.7262 183.392 44.5874 183.243 44.4816C183.105 44.3844 182.94 44.3321 182.771 44.3315H181.046V46.6198Z" fill="#757575"/>
<path d="M198.618 49.0137V50.231H193.552V43.098H198.526V44.3152H194.969V46.0315H198.03V47.1595H194.969V49.0178L198.618 49.0137Z" fill="#757575"/>
<path d="M60.3181 9.65262C61.4543 7.604 63.1237 5.9113 65.1442 4.75936C67.2396 3.57596 69.6049 2.97151 72.0032 3.00656C74.7716 2.94858 77.4905 3.75606 79.7906 5.31929C80.5454 5.83825 81.2383 6.44415 81.8555 7.12485C82.2101 7.51731 82.4443 8.00606 82.5294 8.53132C82.6144 9.05658 82.5467 9.59559 82.3344 10.0824C82.1221 10.5693 81.7746 10.9828 81.3341 11.2726C80.8937 11.5623 80.3796 11.7156 79.8546 11.7138C79.4343 11.7172 79.0191 11.6193 78.6434 11.4281C78.2677 11.2369 77.9422 10.958 77.6937 10.6142C77.1882 9.88135 76.5296 9.27042 75.7648 8.82491C74.5992 8.16552 73.2817 7.83225 71.9472 7.85924C70.4997 7.83468 69.0735 8.21513 67.8254 8.9588C66.6175 9.69796 65.645 10.7741 65.0242 12.0587C64.3279 13.5221 63.9862 15.1329 64.0278 16.7572C63.9939 18.3768 64.3395 19.9815 65.0362 21.4395C65.654 22.7314 66.6268 23.8148 67.8374 24.5596C69.0859 25.3021 70.5121 25.6811 71.9592 25.6551C73.296 25.6846 74.6155 25.3452 75.7768 24.6732C76.5413 24.2203 77.1994 23.6042 77.7057 22.8677C77.9539 22.5226 78.2799 22.2428 78.6566 22.0515C79.0332 21.8602 79.4494 21.7631 79.8706 21.7681H79.8986C80.4228 21.7659 80.9363 21.9187 81.3763 22.2077C81.8162 22.4967 82.1636 22.9094 82.3758 23.3954C82.5881 23.8814 82.6561 24.4196 82.5715 24.9441C82.4869 25.4686 82.2534 25.9568 81.8995 26.3489C81.2797 27.0418 80.5797 27.6562 79.8146 28.1788C77.5067 29.7359 74.7826 30.5362 72.0112 30.4713C69.6129 30.5063 67.2476 29.9019 65.1522 28.7185C63.1359 27.5719 61.4671 25.8882 60.3261 23.8496C59.1283 21.6873 58.5192 19.2409 58.5614 16.7612C58.5188 14.2761 59.1248 11.8237 60.3181 9.65262Z" fill="#1D1A5B"/>
<path d="M98.1946 9.55524C98.8388 9.18271 99.5371 8.91569 100.263 8.76405C100.468 8.71893 100.68 8.72047 100.884 8.76856C101.088 8.81665 101.278 8.91009 101.442 9.04211C101.606 9.17413 101.739 9.34144 101.832 9.53193C101.924 9.72243 101.973 9.93134 101.976 10.1436V12.8174C101.975 13.1955 101.826 13.5577 101.562 13.8247C101.298 14.0917 100.941 14.2416 100.568 14.2416C98.8976 14.2416 97.6383 14.6406 96.79 15.4385C95.9416 16.2365 95.5174 17.6228 95.5174 19.5974V27.5418C95.5174 27.8975 95.4481 28.2497 95.3133 28.5781C95.1786 28.9066 94.9811 29.2047 94.7323 29.4555C94.4835 29.7063 94.1883 29.9047 93.8636 30.0393C93.5388 30.1739 93.1911 30.2422 92.8403 30.24C92.491 30.24 92.1451 30.1702 91.8225 30.0345C91.4998 29.8989 91.2067 29.7001 90.96 29.4495C90.7132 29.1989 90.5175 28.9014 90.3842 28.5741C90.2509 28.2467 90.1826 27.896 90.1831 27.5418V11.5961C90.1831 10.8816 90.4631 10.1963 90.9614 9.69109C91.4597 9.18584 92.1355 8.902 92.8403 8.902C93.1895 8.90147 93.5355 8.97076 93.8583 9.10591C94.1812 9.24107 94.4746 9.43943 94.7217 9.68966C94.9689 9.93988 95.165 10.2371 95.2988 10.5642C95.4326 10.8913 95.5014 11.242 95.5014 11.5961V12.2129C96.162 11.1095 97.0888 10.1948 98.1946 9.55524Z" fill="#1D1A5B"/>
<path d="M125.354 12.5253L114.49 38.7322C114.294 39.2063 113.964 39.6111 113.542 39.8956C113.119 40.1801 112.624 40.3315 112.117 40.3308H112.093C111.666 40.3302 111.245 40.222 110.87 40.016C110.494 39.8099 110.175 39.5125 109.941 39.1504C109.707 38.7883 109.565 38.3729 109.529 37.9416C109.492 37.5102 109.562 37.0764 109.732 36.6791L112.449 30.3739C112.538 30.1601 112.584 29.9304 112.584 29.6983C112.584 29.4663 112.538 29.2366 112.449 29.0228L105.754 12.505C105.592 12.1069 105.53 11.6745 105.573 11.2461C105.616 10.8178 105.763 10.4069 106.001 10.0502C106.238 9.69345 106.56 9.40191 106.935 9.20156C107.311 9.00122 107.73 8.8983 108.155 8.902H108.447C108.971 8.90455 109.481 9.06907 109.91 9.37358C110.339 9.67808 110.666 10.1081 110.848 10.6061L114.85 21.5815C114.912 21.7497 115.024 21.8947 115.17 21.997C115.316 22.0993 115.489 22.1541 115.666 22.1541C115.843 22.1541 116.017 22.0993 116.162 21.997C116.308 21.8947 116.42 21.7497 116.482 21.5815L120.572 10.5939C120.756 10.0982 121.084 9.67079 121.513 9.36857C121.942 9.06636 122.451 8.90362 122.973 8.902C123.399 8.90026 123.818 9.00552 124.194 9.20836C124.569 9.4112 124.889 9.70529 125.125 10.0643C125.361 10.4233 125.505 10.836 125.545 11.2655C125.585 11.695 125.52 12.1278 125.354 12.5253Z" fill="#1D1A5B"/>
<path d="M134.302 29.6436C133.024 29.0829 131.907 28.2019 131.057 27.0833L131.033 27.0509C130.795 26.7137 130.653 26.3162 130.624 25.9025C130.596 25.4888 130.68 25.0751 130.869 24.7073C131.058 24.3395 131.344 24.032 131.695 23.819C132.046 23.606 132.449 23.4958 132.858 23.5006C133.399 23.5007 133.933 23.627 134.419 23.8697C134.905 24.1124 135.329 24.4651 135.659 24.9004C135.841 25.1499 136.057 25.3724 136.299 25.5618C137.052 26.1211 137.968 26.4069 138.9 26.3733C139.734 26.4145 140.559 26.1903 141.261 25.7322C141.524 25.5643 141.741 25.3314 141.891 25.0553C142.04 24.7792 142.119 24.469 142.118 24.1539C142.12 23.8174 142.021 23.4883 141.835 23.21C141.648 22.9318 141.383 22.7176 141.073 22.5958C140.001 22.1158 138.888 21.7355 137.748 21.4597C136.436 21.1493 135.148 20.7424 133.894 20.2425C132.895 19.8335 132.008 19.1863 131.309 18.3558C130.589 17.5078 130.228 16.3677 130.228 14.9273C130.217 13.765 130.569 12.6289 131.233 11.6813C131.965 10.6533 132.966 9.85252 134.122 9.3686C135.523 8.77475 137.03 8.48585 138.548 8.5206C141.053 8.5206 143.054 9.15627 144.551 10.4276C145.03 10.8346 145.453 11.3055 145.807 11.8274C146.047 12.1903 146.185 12.6124 146.206 13.0486C146.227 13.4848 146.13 13.9186 145.927 14.3035C145.723 14.6884 145.42 15.0098 145.05 15.2334C144.68 15.4569 144.257 15.5741 143.826 15.5724H143.59C143.172 15.5619 142.763 15.4407 142.405 15.2208C142.047 15.0009 141.752 14.6899 141.549 14.3187C141.376 14.0217 141.149 13.7603 140.881 13.5478C140.18 13.1065 139.377 12.8597 138.553 12.8319C137.728 12.8042 136.911 12.9964 136.183 13.3895C135.937 13.5502 135.735 13.773 135.599 14.0362C135.463 14.2993 135.397 14.5938 135.407 14.8908C135.407 15.2374 135.509 15.5761 135.698 15.8647C135.887 16.1534 136.156 16.3791 136.471 16.5137C137.529 17.01 138.636 17.3908 139.773 17.6498C141.052 17.9582 142.309 18.3568 143.534 18.8427C144.529 19.2576 145.41 19.9122 146.099 20.7497C146.858 21.7162 147.255 22.9234 147.22 24.1579C147.234 25.3427 146.882 26.5022 146.211 27.4728C145.481 28.4955 144.481 29.2886 143.326 29.7612C141.93 30.3363 140.431 30.6126 138.924 30.5727C137.336 30.6015 135.76 30.2847 134.302 29.6436Z" fill="#1D1A5B"/>
<path d="M159.453 13.3287C159.322 13.3297 159.197 13.3832 159.105 13.4774C159.013 13.5717 158.961 13.699 158.961 13.8318V23.6548C158.934 23.9364 158.966 24.2204 159.055 24.4887C159.143 24.7571 159.285 25.0037 159.473 25.2129C159.813 25.5334 160.39 25.6957 161.202 25.6957H161.43C162.024 25.6957 162.594 25.9351 163.015 26.3612C163.435 26.7873 163.671 27.3652 163.671 27.9679C163.671 28.5705 163.435 29.1484 163.015 29.5745C162.594 30.0006 162.024 30.24 161.43 30.24H160.326C155.844 30.24 153.603 28.0314 153.603 23.6142V13.8318C153.603 13.6983 153.55 13.5704 153.457 13.476C153.364 13.3817 153.238 13.3287 153.106 13.3287H151.45C151.163 13.3292 150.879 13.2724 150.614 13.1615C150.349 13.0506 150.108 12.8878 149.905 12.6824C149.702 12.477 149.541 12.2331 149.431 11.9645C149.321 11.696 149.265 11.4081 149.265 11.1174C149.264 10.8266 149.32 10.5386 149.43 10.2699C149.539 10.0011 149.7 9.75687 149.902 9.55111C150.105 9.34534 150.345 9.18209 150.61 9.07071C150.875 8.95933 151.159 8.902 151.446 8.902H153.102C153.234 8.902 153.36 8.84899 153.453 8.75464C153.546 8.66028 153.599 8.53231 153.599 8.39888V6.3377C153.6 5.61812 153.882 4.92832 154.384 4.4195C154.886 3.91068 155.566 3.62436 156.276 3.62328C156.986 3.62328 157.668 3.90914 158.17 4.41807C158.673 4.92701 158.956 5.61742 158.957 6.3377V8.39888C158.957 8.53161 159.009 8.65897 159.101 8.75321C159.193 8.84745 159.318 8.90093 159.449 8.902H162.699C163.276 8.90415 163.83 9.13863 164.237 9.55397C164.644 9.96931 164.873 10.5316 164.871 11.1174C164.871 11.4081 164.815 11.696 164.705 11.9645C164.595 12.2331 164.434 12.477 164.231 12.6824C164.028 12.8878 163.787 13.0506 163.522 13.1615C163.257 13.2724 162.973 13.3292 162.687 13.3287H159.453Z" fill="#1D1A5B"/>
<path d="M200.935 4.43477V27.5621C200.936 27.9163 200.867 28.267 200.734 28.5944C200.601 28.9217 200.405 29.2192 200.158 29.4698C199.911 29.7204 199.618 29.9192 199.296 30.0548C198.973 30.1905 198.627 30.2603 198.278 30.2603C197.572 30.2603 196.895 29.976 196.396 29.47C195.897 28.964 195.617 28.2777 195.617 27.5621V4.43477C195.617 3.71917 195.897 3.03287 196.396 2.52686C196.895 2.02085 197.572 1.73658 198.278 1.73658C198.627 1.73658 198.973 1.8064 199.296 1.94205C199.618 2.07769 199.911 2.2765 200.158 2.52711C200.405 2.77771 200.601 3.07519 200.734 3.40252C200.867 3.72986 200.936 4.08063 200.935 4.43477Z" fill="#1D1A5B"/>
<path d="M188.454 9.5593C188.113 9.2146 187.687 8.96922 187.221 8.84894C186.754 8.72865 186.264 8.73788 185.803 8.87567C185.341 9.01345 184.924 9.2747 184.597 9.63201C184.269 9.98932 184.042 10.4295 183.94 10.9064C182.405 9.72342 180.576 8.99778 178.657 8.81099C176.738 8.62421 174.806 8.98367 173.078 9.849C171.349 10.7143 169.893 12.0512 168.873 13.7095C167.853 15.3677 167.309 17.2816 167.302 19.236C167.296 21.1905 167.827 23.1081 168.836 24.7733C169.845 26.4385 171.292 27.7853 173.015 28.6625C174.737 29.5397 176.667 29.9124 178.587 29.7388C180.507 29.5652 182.341 28.8522 183.884 27.6798C183.922 28.3863 184.231 29.0498 184.744 29.5289C185.258 30.0081 185.935 30.265 186.633 30.2449C187.331 30.2248 187.993 29.9293 188.479 29.4213C188.965 28.9134 189.236 28.2332 189.234 27.5256V11.4785C189.235 11.1222 189.167 10.7692 189.033 10.4399C188.899 10.1105 188.702 9.81125 188.454 9.5593ZM177.677 25.0343C176.552 25.0359 175.451 24.6991 174.515 24.0663C173.579 23.4336 172.849 22.5334 172.417 21.4798C171.986 20.4262 171.872 19.2665 172.091 18.1474C172.31 17.0283 172.851 16.0003 173.647 15.1933C174.442 14.3863 175.456 13.8367 176.559 13.614C177.663 13.3913 178.807 13.5056 179.846 13.9424C180.886 14.3792 181.774 15.1188 182.399 16.0676C183.023 17.0165 183.356 18.1319 183.355 19.2728C183.354 20.7998 182.756 22.264 181.691 23.3442C180.627 24.4243 179.183 25.0322 177.677 25.0343Z" fill="#1D1A5B"/>
<mask id="mask0_472_1304" style="mask-type:luminance" maskUnits="userSpaceOnUse" x="1" y="0" width="49" height="51">
<path d="M38.8969 25.3792L39.217 25.1966C44.6954 22.2225 50.9941 27.5662 49.0092 33.5387C47.4768 38.1437 44.6426 42.19 40.8594 45.1742C37.0761 48.1584 32.5108 49.9487 27.7317 50.3223C22.9526 50.6959 18.1706 49.6362 13.981 47.2752C9.79127 44.9142 6.37887 41.3561 4.16841 37.0437C1.95795 32.7314 1.04704 27.8551 1.54904 23.0218C2.05104 18.1885 3.94379 13.6116 6.99174 9.86071C10.0397 6.10979 14.1082 3.35048 18.6911 1.92617C23.2739 0.501852 28.1687 0.475429 32.7662 1.85019C38.6448 3.60705 39.4131 11.7665 34.0147 14.6838C33.2032 15.132 32.3113 15.411 31.3918 15.5044C30.4722 15.5978 29.5435 15.5036 28.6604 15.2275C26.6277 14.5697 24.4487 14.5348 22.3965 15.1271C20.3443 15.7194 18.5101 16.9126 17.1237 18.5571C15.7373 20.2017 14.8604 22.2245 14.6029 24.3722C14.3454 26.5198 14.7187 28.6967 15.676 30.6302C16.6333 32.5637 18.1321 34.1677 19.9846 35.2413C21.8371 36.315 23.9608 36.8104 26.0898 36.6657C28.2187 36.5209 30.2582 35.7423 31.9527 34.4275C33.6472 33.1127 34.9213 31.3201 35.6154 29.2743C36.1831 27.6014 37.3559 26.2092 38.8969 25.3792Z" fill="white"/>
</mask>
<g mask="url(#mask0_472_1304)">
<path d="M20.4609 1.37141L25.6111 4.92977L31 1.5L26.0153 -0.892639L20.4609 1.37141Z" fill="#0BD4FF"/>
<path d="M25.6111 4.92977L30.3772 1.5053L33.3625 10.7319L25.6111 4.92977Z" fill="#0984F0"/>
<path d="M33.3625 10.7319L37.8964 5.70068L32.8462 -0.024353L30.3772 1.5053L33.3625 10.7319Z" fill="#0EACFE"/>
<path d="M33.3625 10.7319L32.9863 16.4569L35.1192 15.2965L33.3625 10.7319Z" fill="#0BD4FF"/>
<path d="M33.3625 10.7319L37.0881 13.1177L35.1192 15.2965L33.3625 10.7319Z" fill="#0059DA"/>
<path d="M37.8964 5.70068L33.3625 10.7319L37.0881 13.1177L37.8964 5.70068Z" fill="#0BD4FF"/>
<path d="M25.6111 4.92977L25.5751 10.2572L33.3625 10.7319L25.6111 4.92977Z" fill="#0060DC"/>
<path d="M25.5751 10.2572L28.9686 15.5562L33.3625 10.7319L25.5751 10.2572Z" fill="#0BD4FF"/>
<path d="M32.9863 16.4569L28.9686 15.5562L33.3625 10.7319L32.9863 16.4569Z" fill="#005FF4"/>
<path d="M25.5751 10.2572L23.9184 15.1788L29.3207 16.2216L25.5751 10.2572Z" fill="#04FFC9"/>
<path d="M14.7904 8.28526L17.9758 12.4401L25.5751 10.2572L14.7904 8.28526Z" fill="#0BD4FF"/>
<path d="M25.5751 10.2572L25.6111 4.92977L14.7904 8.28526L25.5751 10.2572Z" fill="#2792FC"/>
<path d="M14.7904 8.28526L20.4609 1.37141L25.6111 4.92977L14.7904 8.28526Z" fill="#0060DC"/>
<path d="M17.9758 12.4401L25.5751 10.2572L23.9184 15.1788L17.9758 12.4401Z" fill="#0984F0"/>
<path d="M14.7904 8.28527L11.8531 4.1264L16.9674 1.62703L20.5289 0.697876L20.4609 1.37141L14.7904 8.28527Z" fill="#0EACFE"/>
<path d="M17.9758 12.4401L17.2235 18.3639L23.9184 15.1788L17.9758 12.4401Z" fill="#00ACF5"/>
<path d="M11.8531 4.1264L14.7904 8.28526L5.3023 10.0178L11.8531 4.1264Z" fill="#0984F0"/>
<path d="M14.7904 8.28526L5.3023 10.0178L9.56815 14.4607L14.7904 8.28526Z" fill="#0060DC"/>
<path d="M9.56815 14.4607L14.7904 8.28526L17.9758 12.4401L9.56815 14.4607Z" fill="#04FFC9"/>
<path d="M9.56815 14.4607L17.2235 18.3639L17.9758 12.4401L9.56815 14.4607Z" fill="#0BD4FF"/>
<path d="M9.56814 14.4607L8.04749 21.4029L17.2235 18.3639L9.56814 14.4607Z" fill="#116FF7"/>
<path d="M5.3023 10.0178L9.56815 14.4607L1.24054 19.1511L2.86524 13.6289L5.3023 10.0178Z" fill="#22BBFF"/>
<path d="M8.04749 21.4029L1.24054 19.1511L9.56815 14.4607L8.04749 21.4029Z" fill="#0EACFE"/>
<path d="M8.04749 21.4029L14.8504 26.0933L17.2235 18.3639L8.04749 21.4029Z" fill="#0060DC"/>
<path d="M1.24054 19.1511L8.04749 21.4029L0 25.7768L0.452196 20.843L1.24054 19.1511Z" fill="#0060DC"/>
<path d="M14.8504 26.0933L8.04749 21.4029L7.8434 29.2784L14.8504 26.0933Z" fill="#0BD4FF"/>
<path d="M8.04749 21.4029L0 25.7768L7.8434 29.2784L8.04749 21.4029Z" fill="#04FFC9"/>
<path d="M14.8504 26.0933L7.8434 29.2784L15.2546 30.5159L14.8504 26.0933Z" fill="#04FFC9"/>
<path d="M0 25.7768L0.568246 32.0415L2.32101 35.3605L7.8434 29.2784L0 25.7768Z" fill="#0060DC"/>
<path d="M7.8434 29.2784L10.7447 35.7906L2.32101 35.3605L7.8434 29.2784Z" fill="#0984F0"/>
<path d="M15.2546 30.5159L7.8434 29.2784L10.7447 35.7906L15.2546 30.5159Z" fill="#005FF4"/>
<path d="M2.32101 35.3605L4.93814 41.9903L9.224 44.8914L10.7447 35.7906L2.32101 35.3605Z" fill="#0BD4FF"/>
<path d="M10.7447 35.7906L15.2546 30.5159L18.524 34.0986L10.7447 35.7906Z" fill="#00ACF5"/>
<path d="M10.7447 35.7906L13.6019 40.1766L9.224 44.8914L10.7447 35.7906Z" fill="#04FFC9"/>
<path d="M18.524 34.0986L13.6019 40.1766L10.7447 35.7906L18.524 34.0986Z" fill="#0060DC"/>
<path d="M13.6019 40.1766L21.5774 42.4853L18.524 34.0986L13.6019 40.1766Z" fill="#0BD4FF"/>
<path d="M13.6019 40.1767L9.224 44.8914L14.5663 49.3099L17.5996 49.2856L13.6019 40.1767Z" fill="#0EACFE"/>
<path d="M21.5774 42.4853L13.6019 40.1767L17.5996 49.2856L21.5774 42.4853Z" fill="#0984F0"/>
<path d="M21.5774 42.4853L25.5791 36.0097L18.524 34.0986L21.5774 42.4853Z" fill="#0EACFE"/>
<path d="M17.5996 49.2856L21.5773 42.4853L25.5871 50.7665L18.436 50.8639L17.5996 49.2856Z" fill="#005FF4"/>
<path d="M25.5791 36.0097L28.8565 42.2175L21.5774 42.4853L25.5791 36.0097Z" fill="#04FFC9"/>
<path d="M25.5871 50.7665L28.8565 42.2175L21.5774 42.4853L25.5871 50.7665Z" fill="#0060DC"/>
<path d="M25.5791 36.0097L33.5986 40.5946L28.8565 42.2175L25.5791 36.0097Z" fill="#0984F0"/>
<path d="M25.5871 50.7665L28.8565 42.2175L33.6986 49.7603L27.8921 52.3043L25.5871 50.7665Z" fill="#04FFC9"/>
<path d="M33.5986 40.5946L28.8565 42.2175L33.6986 49.7603L33.5986 40.5946Z" fill="#0EACFE"/>
<path d="M25.5791 36.0097L32.1659 32.431L33.5986 40.5946L25.5791 36.0097Z" fill="#005FF4"/>
<path d="M33.5986 40.5946L37.3882 34.407L32.1659 32.431L33.5986 40.5946Z" fill="#00ACF5"/>
<path d="M33.5986 40.5946L43.2948 43.0696L37.3882 34.407L33.5986 40.5946Z" fill="#0060DC"/>
<path d="M33.5986 40.5946L43.2948 43.0696L38.8809 47.6504L33.6986 49.7603L33.5986 40.5946Z" fill="#0BD4FF"/>
<path d="M37.3882 34.407L35.1873 26.6857L32.1659 32.431L37.3882 34.407Z" fill="#22BBFF"/>
<path d="M43.2948 43.0696L42.2743 33.2303L37.3882 34.407L43.2948 43.0696Z" fill="#2792FC"/>
<path d="M35.1873 26.6857L42.2743 33.2303L37.3882 34.407L35.1873 26.6857Z" fill="#04FFC9"/>
<path d="M42.2743 33.2303L49.9336 35.2712L43.2948 43.0696L42.2743 33.2303Z" fill="#0EACFE"/>
<path d="M35.1873 26.6857L43.6709 22.4619L42.2743 33.2303L35.1873 26.6857Z" fill="#0984F0"/>
<path d="M49.9336 35.2712L49.3414 27.9151L42.2743 33.2303L49.9336 35.2712Z" fill="#0BD4FF"/>
<path d="M43.6709 22.4619L42.2743 33.2303L49.3414 27.9151L43.6709 22.4619Z" fill="#0060DC"/>
</g>
</svg>
