<svg width="44" height="45" viewBox="0 0 44 45" fill="none" xmlns="http://www.w3.org/2000/svg">
<g clip-path="url(#clip0_472_1771)">
<path d="M43.2979 14.3579H40.4894C40.1015 14.3579 39.7872 14.6722 39.7872 15.06V17.1664H36.5106V5.93233H36.7447C37.1325 5.93233 37.4468 5.61797 37.4468 5.2302C37.4468 4.84244 37.1325 4.52808 36.7447 4.52808H28.7872C28.3994 4.52808 28.0851 4.84244 28.0851 5.2302C28.0851 5.61797 28.3994 5.93233 28.7872 5.93233H29.0213V17.1664H25.7447V5.93233H25.9787C26.3666 5.93233 26.6809 5.61797 26.6809 5.2302C26.6809 4.84244 26.3666 4.52808 25.9787 4.52808H18.0213C17.6334 4.52808 17.3191 4.84244 17.3191 5.2302C17.3191 5.61797 17.6334 5.93233 18.0213 5.93233H18.2553V17.1664H14.9787V5.93233H15.2128C15.6006 5.93233 15.9149 5.61797 15.9149 5.2302C15.9149 4.84244 15.6006 4.52808 15.2128 4.52808H7.25532C6.86746 4.52808 6.55319 4.84244 6.55319 5.2302C6.55319 5.61797 6.86746 5.93233 7.25532 5.93233H7.48936V17.1664H4.21277V15.06C4.21277 14.6722 3.89849 14.3579 3.51064 14.3579H0.702128C0.314272 14.3579 0 14.6722 0 15.06V39.1664C0 39.5541 0.314272 39.8685 0.702128 39.8685H3.51064C3.89849 39.8685 4.21277 39.5541 4.21277 39.1664V35.5387H39.7872V39.1664C39.7872 39.5541 40.1015 39.8685 40.4894 39.8685H43.2979C43.6857 39.8685 44 39.5541 44 39.1664V15.06C44 14.6722 43.6857 14.3579 43.2979 14.3579ZM30.4255 5.93233H35.1064V17.1664H30.4255V5.93233ZM30.4255 18.5706H35.1064V27.4642C35.1064 28.7548 34.0565 29.8047 32.766 29.8047C31.4754 29.8047 30.4255 28.7548 30.4255 27.4642V18.5706ZM19.6596 5.93233H24.3404V17.1664H19.6596V5.93233ZM19.6596 18.5706H24.3404V27.4642C24.3404 28.7548 23.2905 29.8047 22 29.8047C20.7095 29.8047 19.6596 28.7548 19.6596 27.4642V18.5706ZM8.89362 5.93233H13.5745V17.1664H8.89362V5.93233ZM8.89362 18.5706H13.5745V27.4642C13.5745 28.7548 12.5246 29.8047 11.234 29.8047C9.94353 29.8047 8.89362 28.7548 8.89362 27.4642V18.5706ZM2.80851 38.4642H1.40426V15.7621H2.80851V38.4642ZM4.21277 34.1345V18.5706H7.48936V27.4642C7.48936 29.5291 9.16923 31.2089 11.234 31.2089C13.2989 31.2089 14.9787 29.5291 14.9787 27.4642V18.5706H18.2553V27.4642C18.2553 29.5291 19.9352 31.2089 22 31.2089C24.0648 31.2089 25.7447 29.5291 25.7447 27.4642V18.5706H29.0213V27.4642C29.0213 29.5291 30.7011 31.2089 32.766 31.2089C34.8308 31.2089 36.5106 29.5291 36.5106 27.4642V18.5706H39.7872V34.1345H4.21277ZM42.5957 38.4642H41.1915V15.7621H42.5957V38.4642Z" fill="black"/>
</g>
<defs>
<clipPath id="clip0_472_1771">
<rect width="44" height="44" fill="white" transform="translate(0 0.198242)"/>
</clipPath>
</defs>
</svg>
