<svg width="44" height="45" viewBox="0 0 44 45" fill="none" xmlns="http://www.w3.org/2000/svg">
<g clip-path="url(#clip0_472_1975)">
<mask id="path-1-outside-1_472_1975" maskUnits="userSpaceOnUse" x="9" y="0.198242" width="25" height="43" fill="black">
<rect fill="white" x="9" y="0.198242" width="25" height="43"/>
<path d="M20.0138 1.19824C19.1468 1.19824 18.4049 1.91073 18.4049 2.77454C18.4049 3.63834 19.1468 4.35083 20.0138 4.35083C20.8807 4.35083 21.5901 3.63834 21.5901 2.77454C21.5901 1.91073 20.8807 1.19824 20.0138 1.19824ZM20.0138 2.2491C20.3122 2.2491 20.5392 2.47714 20.5392 2.77454C20.5392 3.07088 20.3122 3.29997 20.0138 3.29997C19.7164 3.29997 19.4558 3.07088 19.4558 2.77454C19.4558 2.47714 19.7164 2.2491 20.0138 2.2491ZM24.1184 5.36808C23.2515 5.36808 22.5422 6.08057 22.5422 6.94438C22.5422 7.80818 23.2515 8.52067 24.1184 8.52067C24.9854 8.52067 25.6947 7.80818 25.6947 6.94438C25.6947 6.08057 24.9854 5.36808 24.1184 5.36808ZM24.1184 6.41894C24.4169 6.41894 24.6439 6.64803 24.6439 6.94438C24.6439 7.24177 24.4169 7.46981 24.1184 7.46981C24.0491 7.47109 23.9802 7.45836 23.9159 7.43241C23.8515 7.40646 23.7931 7.36781 23.7441 7.31876C23.695 7.26971 23.6563 7.21126 23.6304 7.14693C23.6044 7.0826 23.5917 7.01373 23.593 6.94438C23.593 6.64803 23.8211 6.41894 24.1184 6.41894ZM16.3032 10.097C16.2104 10.1164 16.1245 10.1606 16.0548 10.2249C15.9851 10.2891 15.934 10.3711 15.9071 10.462C15.8802 10.5529 15.8783 10.6494 15.9018 10.7413C15.9253 10.8332 15.9732 10.917 16.0405 10.9839L17.8133 12.7577V25.3681L10.1294 39.2583C10.1153 39.2901 10.1044 39.3233 10.0968 39.3572C9.84669 40.2799 10.1063 41.1311 10.5886 41.6901C11.0657 42.2397 11.7204 42.5382 12.3961 42.5098H30.8177C31.6794 42.5098 32.4161 42.2324 32.8217 41.6239C33.2263 41.0144 33.2273 40.221 32.9856 39.3246C32.9805 39.2796 32.9695 39.2355 32.953 39.1933L30.7525 35.7454C30.7513 35.661 30.7297 35.5781 30.6896 35.5039C30.6496 35.4296 30.5922 35.3662 30.5224 35.3187L24.1847 25.3019L24.1521 12.7577L25.9249 10.9839C25.9942 10.9105 26.0409 10.8188 26.0594 10.7196C26.078 10.6204 26.0676 10.518 26.0294 10.4245C25.9913 10.3311 25.9271 10.2506 25.8444 10.1927C25.7618 10.1348 25.6642 10.1019 25.5634 10.098H16.402C16.3691 10.0949 16.336 10.0939 16.3032 10.097ZM17.6819 11.1478H24.316L23.2651 12.1987C23.1653 12.2931 23.1065 12.4229 23.1012 12.5602L23.1327 25.4658C23.1349 25.5723 23.1693 25.6757 23.2315 25.7622L29.439 35.614C29.3097 35.695 29.2981 35.7118 29.11 35.8106C28.676 36.0386 28.0949 36.2371 27.7639 36.2371C27.1943 36.2371 26.6826 35.8768 26.0562 35.3839C25.4299 34.89 24.7006 34.2667 23.6918 34.2667C22.683 34.2667 21.9358 34.889 21.2948 35.3839C20.6538 35.8789 20.1231 36.2708 19.5535 36.2708C18.9619 36.2708 18.489 35.9124 17.9121 35.449C17.3351 34.9866 16.6762 34.396 15.7116 34.2667C15.0548 34.1795 14.4221 34.3991 13.8725 34.6608L18.799 25.7285C18.8433 25.6481 18.8657 25.5576 18.8641 25.4658V12.5612C18.8591 12.4235 18.8003 12.2934 18.7002 12.1987L17.6819 11.1478ZM22.5758 27.7988C21.7088 27.7988 20.9659 28.5102 20.9659 29.3751C20.9659 30.2378 21.7088 30.9828 22.5758 30.9828C23.4427 30.9828 24.1521 30.2378 24.1521 29.3751C24.1521 28.5102 23.4427 27.7988 22.5758 27.7988ZM22.5758 28.8486C22.8732 28.8486 23.1012 29.0766 23.1012 29.374C23.1012 29.6704 22.8732 29.9319 22.5758 29.9319C22.4288 29.9285 22.2887 29.8687 22.1847 29.7648C22.0806 29.6609 22.0205 29.521 22.0167 29.374C22.0167 29.0766 22.2773 28.8486 22.5758 28.8486ZM19.4232 32.0012C18.5562 32.0012 17.8133 32.7137 17.8133 33.5775C17.8133 34.4413 18.5562 35.1862 19.4232 35.1862C20.2902 35.1862 20.9995 34.4402 20.9995 33.5775C20.9995 32.7137 20.2902 32.0012 19.4232 32.0012ZM19.4232 33.0521C19.7206 33.0521 19.9486 33.2801 19.9486 33.5775C19.9486 33.8738 19.7206 34.1354 19.4232 34.1354C19.2762 34.1319 19.1362 34.0721 19.0321 33.9682C18.928 33.8643 18.8679 33.7245 18.8641 33.5775C18.8641 33.2801 19.1248 33.0521 19.4232 33.0521ZM15.5802 35.3176C16.1802 35.3975 16.6626 35.7947 17.2553 36.2697C17.848 36.7457 18.5688 37.3205 19.5546 37.3205C20.5634 37.3205 21.3105 36.7006 21.9505 36.2046C22.5915 35.7097 23.1233 35.3176 23.6918 35.3176C24.2614 35.3176 24.7731 35.7107 25.3995 36.2046C26.0258 36.6985 26.7551 37.288 27.7639 37.288C28.4385 37.288 29.0995 37.0263 29.6029 36.7625C29.738 36.6925 29.8696 36.6157 29.997 36.5324L31.9999 39.685C32.1523 40.3344 32.0913 40.8295 31.9348 41.0649C31.7666 41.3171 31.4682 41.459 30.8177 41.459H12.3961C12.0924 41.4758 11.6531 41.317 11.3767 40.9986C11.1014 40.6801 10.949 40.2662 11.114 39.6536L12.8217 36.5661C12.8217 36.5661 13.2294 36.2182 13.8074 35.8756C14.3854 35.5341 15.1189 35.2545 15.5802 35.3176Z"/>
</mask>
<path d="M20.0138 1.19824C19.1468 1.19824 18.4049 1.91073 18.4049 2.77454C18.4049 3.63834 19.1468 4.35083 20.0138 4.35083C20.8807 4.35083 21.5901 3.63834 21.5901 2.77454C21.5901 1.91073 20.8807 1.19824 20.0138 1.19824ZM20.0138 2.2491C20.3122 2.2491 20.5392 2.47714 20.5392 2.77454C20.5392 3.07088 20.3122 3.29997 20.0138 3.29997C19.7164 3.29997 19.4558 3.07088 19.4558 2.77454C19.4558 2.47714 19.7164 2.2491 20.0138 2.2491ZM24.1184 5.36808C23.2515 5.36808 22.5422 6.08057 22.5422 6.94438C22.5422 7.80818 23.2515 8.52067 24.1184 8.52067C24.9854 8.52067 25.6947 7.80818 25.6947 6.94438C25.6947 6.08057 24.9854 5.36808 24.1184 5.36808ZM24.1184 6.41894C24.4169 6.41894 24.6439 6.64803 24.6439 6.94438C24.6439 7.24177 24.4169 7.46981 24.1184 7.46981C24.0491 7.47109 23.9802 7.45836 23.9159 7.43241C23.8515 7.40646 23.7931 7.36781 23.7441 7.31876C23.695 7.26971 23.6563 7.21126 23.6304 7.14693C23.6044 7.0826 23.5917 7.01373 23.593 6.94438C23.593 6.64803 23.8211 6.41894 24.1184 6.41894ZM16.3032 10.097C16.2104 10.1164 16.1245 10.1606 16.0548 10.2249C15.9851 10.2891 15.934 10.3711 15.9071 10.462C15.8802 10.5529 15.8783 10.6494 15.9018 10.7413C15.9253 10.8332 15.9732 10.917 16.0405 10.9839L17.8133 12.7577V25.3681L10.1294 39.2583C10.1153 39.2901 10.1044 39.3233 10.0968 39.3572C9.84669 40.2799 10.1063 41.1311 10.5886 41.6901C11.0657 42.2397 11.7204 42.5382 12.3961 42.5098H30.8177C31.6794 42.5098 32.4161 42.2324 32.8217 41.6239C33.2263 41.0144 33.2273 40.221 32.9856 39.3246C32.9805 39.2796 32.9695 39.2355 32.953 39.1933L30.7525 35.7454C30.7513 35.661 30.7297 35.5781 30.6896 35.5039C30.6496 35.4296 30.5922 35.3662 30.5224 35.3187L24.1847 25.3019L24.1521 12.7577L25.9249 10.9839C25.9942 10.9105 26.0409 10.8188 26.0594 10.7196C26.078 10.6204 26.0676 10.518 26.0294 10.4245C25.9913 10.3311 25.9271 10.2506 25.8444 10.1927C25.7618 10.1348 25.6642 10.1019 25.5634 10.098H16.402C16.3691 10.0949 16.336 10.0939 16.3032 10.097ZM17.6819 11.1478H24.316L23.2651 12.1987C23.1653 12.2931 23.1065 12.4229 23.1012 12.5602L23.1327 25.4658C23.1349 25.5723 23.1693 25.6757 23.2315 25.7622L29.439 35.614C29.3097 35.695 29.2981 35.7118 29.11 35.8106C28.676 36.0386 28.0949 36.2371 27.7639 36.2371C27.1943 36.2371 26.6826 35.8768 26.0562 35.3839C25.4299 34.89 24.7006 34.2667 23.6918 34.2667C22.683 34.2667 21.9358 34.889 21.2948 35.3839C20.6538 35.8789 20.1231 36.2708 19.5535 36.2708C18.9619 36.2708 18.489 35.9124 17.9121 35.449C17.3351 34.9866 16.6762 34.396 15.7116 34.2667C15.0548 34.1795 14.4221 34.3991 13.8725 34.6608L18.799 25.7285C18.8433 25.6481 18.8657 25.5576 18.8641 25.4658V12.5612C18.8591 12.4235 18.8003 12.2934 18.7002 12.1987L17.6819 11.1478ZM22.5758 27.7988C21.7088 27.7988 20.9659 28.5102 20.9659 29.3751C20.9659 30.2378 21.7088 30.9828 22.5758 30.9828C23.4427 30.9828 24.1521 30.2378 24.1521 29.3751C24.1521 28.5102 23.4427 27.7988 22.5758 27.7988ZM22.5758 28.8486C22.8732 28.8486 23.1012 29.0766 23.1012 29.374C23.1012 29.6704 22.8732 29.9319 22.5758 29.9319C22.4288 29.9285 22.2887 29.8687 22.1847 29.7648C22.0806 29.6609 22.0205 29.521 22.0167 29.374C22.0167 29.0766 22.2773 28.8486 22.5758 28.8486ZM19.4232 32.0012C18.5562 32.0012 17.8133 32.7137 17.8133 33.5775C17.8133 34.4413 18.5562 35.1862 19.4232 35.1862C20.2902 35.1862 20.9995 34.4402 20.9995 33.5775C20.9995 32.7137 20.2902 32.0012 19.4232 32.0012ZM19.4232 33.0521C19.7206 33.0521 19.9486 33.2801 19.9486 33.5775C19.9486 33.8738 19.7206 34.1354 19.4232 34.1354C19.2762 34.1319 19.1362 34.0721 19.0321 33.9682C18.928 33.8643 18.8679 33.7245 18.8641 33.5775C18.8641 33.2801 19.1248 33.0521 19.4232 33.0521ZM15.5802 35.3176C16.1802 35.3975 16.6626 35.7947 17.2553 36.2697C17.848 36.7457 18.5688 37.3205 19.5546 37.3205C20.5634 37.3205 21.3105 36.7006 21.9505 36.2046C22.5915 35.7097 23.1233 35.3176 23.6918 35.3176C24.2614 35.3176 24.7731 35.7107 25.3995 36.2046C26.0258 36.6985 26.7551 37.288 27.7639 37.288C28.4385 37.288 29.0995 37.0263 29.6029 36.7625C29.738 36.6925 29.8696 36.6157 29.997 36.5324L31.9999 39.685C32.1523 40.3344 32.0913 40.8295 31.9348 41.0649C31.7666 41.3171 31.4682 41.459 30.8177 41.459H12.3961C12.0924 41.4758 11.6531 41.317 11.3767 40.9986C11.1014 40.6801 10.949 40.2662 11.114 39.6536L12.8217 36.5661C12.8217 36.5661 13.2294 36.2182 13.8074 35.8756C14.3854 35.5341 15.1189 35.2545 15.5802 35.3176Z" fill="black"/>
<path d="M20.0138 1.19824C19.1468 1.19824 18.4049 1.91073 18.4049 2.77454C18.4049 3.63834 19.1468 4.35083 20.0138 4.35083C20.8807 4.35083 21.5901 3.63834 21.5901 2.77454C21.5901 1.91073 20.8807 1.19824 20.0138 1.19824ZM20.0138 2.2491C20.3122 2.2491 20.5392 2.47714 20.5392 2.77454C20.5392 3.07088 20.3122 3.29997 20.0138 3.29997C19.7164 3.29997 19.4558 3.07088 19.4558 2.77454C19.4558 2.47714 19.7164 2.2491 20.0138 2.2491ZM24.1184 5.36808C23.2515 5.36808 22.5422 6.08057 22.5422 6.94438C22.5422 7.80818 23.2515 8.52067 24.1184 8.52067C24.9854 8.52067 25.6947 7.80818 25.6947 6.94438C25.6947 6.08057 24.9854 5.36808 24.1184 5.36808ZM24.1184 6.41894C24.4169 6.41894 24.6439 6.64803 24.6439 6.94438C24.6439 7.24177 24.4169 7.46981 24.1184 7.46981C24.0491 7.47109 23.9802 7.45836 23.9159 7.43241C23.8515 7.40646 23.7931 7.36781 23.7441 7.31876C23.695 7.26971 23.6563 7.21126 23.6304 7.14693C23.6044 7.0826 23.5917 7.01373 23.593 6.94438C23.593 6.64803 23.8211 6.41894 24.1184 6.41894ZM16.3032 10.097C16.2104 10.1164 16.1245 10.1606 16.0548 10.2249C15.9851 10.2891 15.934 10.3711 15.9071 10.462C15.8802 10.5529 15.8783 10.6494 15.9018 10.7413C15.9253 10.8332 15.9732 10.917 16.0405 10.9839L17.8133 12.7577V25.3681L10.1294 39.2583C10.1153 39.2901 10.1044 39.3233 10.0968 39.3572C9.84669 40.2799 10.1063 41.1311 10.5886 41.6901C11.0657 42.2397 11.7204 42.5382 12.3961 42.5098H30.8177C31.6794 42.5098 32.4161 42.2324 32.8217 41.6239C33.2263 41.0144 33.2273 40.221 32.9856 39.3246C32.9805 39.2796 32.9695 39.2355 32.953 39.1933L30.7525 35.7454C30.7513 35.661 30.7297 35.5781 30.6896 35.5039C30.6496 35.4296 30.5922 35.3662 30.5224 35.3187L24.1847 25.3019L24.1521 12.7577L25.9249 10.9839C25.9942 10.9105 26.0409 10.8188 26.0594 10.7196C26.078 10.6204 26.0676 10.518 26.0294 10.4245C25.9913 10.3311 25.9271 10.2506 25.8444 10.1927C25.7618 10.1348 25.6642 10.1019 25.5634 10.098H16.402C16.3691 10.0949 16.336 10.0939 16.3032 10.097ZM17.6819 11.1478H24.316L23.2651 12.1987C23.1653 12.2931 23.1065 12.4229 23.1012 12.5602L23.1327 25.4658C23.1349 25.5723 23.1693 25.6757 23.2315 25.7622L29.439 35.614C29.3097 35.695 29.2981 35.7118 29.11 35.8106C28.676 36.0386 28.0949 36.2371 27.7639 36.2371C27.1943 36.2371 26.6826 35.8768 26.0562 35.3839C25.4299 34.89 24.7006 34.2667 23.6918 34.2667C22.683 34.2667 21.9358 34.889 21.2948 35.3839C20.6538 35.8789 20.1231 36.2708 19.5535 36.2708C18.9619 36.2708 18.489 35.9124 17.9121 35.449C17.3351 34.9866 16.6762 34.396 15.7116 34.2667C15.0548 34.1795 14.4221 34.3991 13.8725 34.6608L18.799 25.7285C18.8433 25.6481 18.8657 25.5576 18.8641 25.4658V12.5612C18.8591 12.4235 18.8003 12.2934 18.7002 12.1987L17.6819 11.1478ZM22.5758 27.7988C21.7088 27.7988 20.9659 28.5102 20.9659 29.3751C20.9659 30.2378 21.7088 30.9828 22.5758 30.9828C23.4427 30.9828 24.1521 30.2378 24.1521 29.3751C24.1521 28.5102 23.4427 27.7988 22.5758 27.7988ZM22.5758 28.8486C22.8732 28.8486 23.1012 29.0766 23.1012 29.374C23.1012 29.6704 22.8732 29.9319 22.5758 29.9319C22.4288 29.9285 22.2887 29.8687 22.1847 29.7648C22.0806 29.6609 22.0205 29.521 22.0167 29.374C22.0167 29.0766 22.2773 28.8486 22.5758 28.8486ZM19.4232 32.0012C18.5562 32.0012 17.8133 32.7137 17.8133 33.5775C17.8133 34.4413 18.5562 35.1862 19.4232 35.1862C20.2902 35.1862 20.9995 34.4402 20.9995 33.5775C20.9995 32.7137 20.2902 32.0012 19.4232 32.0012ZM19.4232 33.0521C19.7206 33.0521 19.9486 33.2801 19.9486 33.5775C19.9486 33.8738 19.7206 34.1354 19.4232 34.1354C19.2762 34.1319 19.1362 34.0721 19.0321 33.9682C18.928 33.8643 18.8679 33.7245 18.8641 33.5775C18.8641 33.2801 19.1248 33.0521 19.4232 33.0521ZM15.5802 35.3176C16.1802 35.3975 16.6626 35.7947 17.2553 36.2697C17.848 36.7457 18.5688 37.3205 19.5546 37.3205C20.5634 37.3205 21.3105 36.7006 21.9505 36.2046C22.5915 35.7097 23.1233 35.3176 23.6918 35.3176C24.2614 35.3176 24.7731 35.7107 25.3995 36.2046C26.0258 36.6985 26.7551 37.288 27.7639 37.288C28.4385 37.288 29.0995 37.0263 29.6029 36.7625C29.738 36.6925 29.8696 36.6157 29.997 36.5324L31.9999 39.685C32.1523 40.3344 32.0913 40.8295 31.9348 41.0649C31.7666 41.3171 31.4682 41.459 30.8177 41.459H12.3961C12.0924 41.4758 11.6531 41.317 11.3767 40.9986C11.1014 40.6801 10.949 40.2662 11.114 39.6536L12.8217 36.5661C12.8217 36.5661 13.2294 36.2182 13.8074 35.8756C14.3854 35.5341 15.1189 35.2545 15.5802 35.3176Z" stroke="black" stroke-width="0.4" mask="url(#path-1-outside-1_472_1975)"/>
</g>
<defs>
<clipPath id="clip0_472_1975">
<rect width="44" height="44" fill="white" transform="translate(0 0.198242)"/>
</clipPath>
</defs>
</svg>
