<svg width="44" height="45" viewBox="0 0 44 45" fill="none" xmlns="http://www.w3.org/2000/svg">
<path d="M38.5 7.07324H5.5C3.22183 7.07324 1.375 8.92007 1.375 11.1982V33.1982C1.375 35.4764 3.22183 37.3232 5.5 37.3232H38.5C40.7782 37.3232 42.625 35.4764 42.625 33.1982V11.1982C42.625 8.92007 40.7782 7.07324 38.5 7.07324Z" stroke="black" stroke-width="2" stroke-linecap="round" stroke-linejoin="round"/>
<path d="M11 19.4482C12.5188 19.4482 13.75 18.217 13.75 16.6982C13.75 15.1795 12.5188 13.9482 11 13.9482C9.48122 13.9482 8.25 15.1795 8.25 16.6982C8.25 18.217 9.48122 19.4482 11 19.4482Z" stroke="black" stroke-width="2" stroke-linecap="round" stroke-linejoin="round"/>
<path d="M22 19.4482C23.5188 19.4482 24.75 18.217 24.75 16.6982C24.75 15.1795 23.5188 13.9482 22 13.9482C20.4812 13.9482 19.25 15.1795 19.25 16.6982C19.25 18.217 20.4812 19.4482 22 19.4482Z" stroke="black" stroke-width="2" stroke-linecap="round" stroke-linejoin="round"/>
<path d="M33 19.4482C34.5188 19.4482 35.75 18.217 35.75 16.6982C35.75 15.1795 34.5188 13.9482 33 13.9482C31.4812 13.9482 30.25 15.1795 30.25 16.6982C30.25 18.217 31.4812 19.4482 33 19.4482Z" stroke="black" stroke-width="2" stroke-linecap="round" stroke-linejoin="round"/>
<path d="M11 30.4482C12.5188 30.4482 13.75 29.217 13.75 27.6982C13.75 26.1795 12.5188 24.9482 11 24.9482C9.48122 24.9482 8.25 26.1795 8.25 27.6982C8.25 29.217 9.48122 30.4482 11 30.4482Z" stroke="black" stroke-width="2" stroke-linecap="round" stroke-linejoin="round"/>
<path d="M22 30.4482C23.5188 30.4482 24.75 29.217 24.75 27.6982C24.75 26.1795 23.5188 24.9482 22 24.9482C20.4812 24.9482 19.25 26.1795 19.25 27.6982C19.25 29.217 20.4812 30.4482 22 30.4482Z" stroke="black" stroke-width="2" stroke-linecap="round" stroke-linejoin="round"/>
<path d="M33 30.4482C34.5188 30.4482 35.75 29.217 35.75 27.6982C35.75 26.1795 34.5188 24.9482 33 24.9482C31.4812 24.9482 30.25 26.1795 30.25 27.6982C30.25 29.217 31.4812 30.4482 33 30.4482Z" stroke="black" stroke-width="2" stroke-linecap="round" stroke-linejoin="round"/>
</svg>
