<svg width="44" height="45" viewBox="0 0 44 45" fill="none" xmlns="http://www.w3.org/2000/svg">
<path d="M8.52498 28.0249C8.55076 30.0358 9.68514 31.8835 11.4898 32.7858C13.3289 33.7054 15.5719 33.4304 17.1617 32.1499C18.4508 31.1101 19.1383 29.546 19.1383 27.896C19.1383 26.8132 19.1383 25.739 19.1383 24.6562C19.1383 23.4444 19.1383 22.2413 19.1383 21.0296C19.1383 20.6772 18.8461 20.3851 18.4937 20.3851C15.3828 20.3851 12.2719 20.3851 9.16951 20.3851C8.81717 20.3851 8.52498 20.6772 8.52498 21.0296C8.52498 23.3671 8.52498 25.696 8.52498 28.0249C8.52498 28.8585 9.81404 28.8585 9.81404 28.0249C9.81404 25.696 9.81404 23.3585 9.81404 21.0296C9.5992 21.2444 9.38436 21.4593 9.16951 21.6741C12.2804 21.6741 15.3914 21.6741 18.4937 21.6741C18.2789 21.4593 18.064 21.2444 17.8492 21.0296C17.8492 23.1437 17.8492 25.2663 17.8492 27.3804C17.8492 27.6726 17.8578 27.9647 17.8406 28.2655C17.8062 29.1593 17.4109 30.0358 16.8179 30.7062C15.5633 32.1241 13.4664 32.4335 11.8336 31.514C10.5789 30.8093 9.82264 29.4515 9.80545 28.0249C9.80545 27.1999 8.51639 27.1999 8.52498 28.0249ZM17.8578 6.96162C17.8578 10.8718 17.8578 14.7733 17.8578 18.6835C17.8578 18.6921 17.8578 18.7007 17.8578 18.7007C18.0726 18.4858 18.2875 18.271 18.5023 18.0562C15.3914 18.0562 12.2804 18.0562 9.17811 18.0562C9.39295 18.271 9.60779 18.4858 9.82264 18.7007C9.82264 14.7905 9.82264 10.889 9.82264 6.97881C9.82264 6.97022 9.82264 6.96162 9.82264 6.96162C9.82264 6.12803 8.53357 6.12803 8.53357 6.96162C8.53357 10.8718 8.53357 14.7733 8.53357 18.6835C8.53357 18.6921 8.53357 18.7007 8.53357 18.7007C8.53357 19.053 8.82576 19.3452 9.17811 19.3452C12.289 19.3452 15.4 19.3452 18.5023 19.3452C18.8547 19.3452 19.1469 19.053 19.1469 18.7007C19.1469 14.7905 19.1469 10.889 19.1469 6.97881C19.1469 6.97022 19.1469 6.96162 19.1469 6.96162C19.1469 6.12803 17.8578 6.12803 17.8578 6.96162ZM39.7375 37.014C38.6375 36.653 37.3226 36.7905 36.1797 36.7905C34.0828 36.7905 31.9859 36.7905 29.8976 36.7905C24.4062 36.7905 18.9148 36.7905 13.4234 36.7905C11.4211 36.7905 9.41873 36.7905 7.41639 36.7905C5.97264 36.7905 4.52029 36.653 3.25701 37.5124C2.35467 38.1226 1.73592 39.0851 1.52967 40.1421C1.40076 40.778 1.45232 41.4569 1.45232 42.1015C1.45232 42.4538 1.74451 42.746 2.09686 42.746C4.76092 42.746 7.42498 42.746 10.089 42.746C15.5547 42.746 21.0117 42.746 26.4773 42.746C30.9461 42.746 35.4062 42.746 39.875 42.746C40.5539 42.746 41.2242 42.746 41.9031 42.746C42.2554 42.746 42.5476 42.4538 42.5476 42.1015C42.5476 41.2851 42.5992 40.4601 42.35 39.6694C41.9633 38.4062 40.9578 37.4694 39.7375 37.014C38.9554 36.7218 38.6203 37.9679 39.3937 38.2601C40.3304 38.6038 40.975 39.403 41.1984 40.3655C41.3273 40.9155 41.25 41.5429 41.25 42.1015C41.4648 41.8866 41.6797 41.6718 41.8945 41.4569C39.2304 41.4569 36.5664 41.4569 33.9023 41.4569C28.4367 41.4569 22.9797 41.4569 17.514 41.4569C13.0453 41.4569 8.58514 41.4569 4.11639 41.4569C3.43748 41.4569 2.76717 41.4569 2.08826 41.4569C2.30311 41.6718 2.51795 41.8866 2.73279 42.1015C2.73279 41.5687 2.68123 41.0101 2.76717 40.4858C2.92186 39.5147 3.5492 38.7585 4.41717 38.3288C4.94139 38.071 5.50857 38.0796 6.06717 38.0796C7.57107 38.0796 9.06639 38.0796 10.5703 38.0796C15.9156 38.0796 21.2695 38.0796 26.6148 38.0796C30.439 38.0796 34.2719 38.0796 38.0961 38.0796C38.5429 38.0796 38.9554 38.114 39.3851 38.2601C40.1929 38.5179 40.5281 37.2718 39.7375 37.014Z" fill="black"/>
<path d="M18.7344 6.31699C16.7063 6.31699 14.6781 6.31699 12.65 6.31699C11.5586 6.31699 10.4672 6.31699 9.37579 6.31699C9.13516 6.31699 8.87735 6.33418 8.64532 6.29121C7.82032 6.15371 7.21016 5.42324 7.21016 4.58965C7.21016 3.74746 7.85469 2.98262 8.69688 2.8709C8.92891 2.84512 9.17813 2.8623 9.41016 2.8623C10.5188 2.8623 11.6188 2.8623 12.7274 2.8623C14.7641 2.8623 16.8094 2.81934 18.8461 2.8623C19.7399 2.88809 20.4531 3.72168 20.4531 4.58965C20.4617 5.55215 19.6797 6.29121 18.7344 6.31699C17.9008 6.33418 17.9008 7.62324 18.7344 7.60605C20.8742 7.55449 22.3609 5.36309 21.4844 3.36934C21.0891 2.4584 20.2297 1.79668 19.2586 1.6248C18.9492 1.57324 18.6484 1.57324 18.3391 1.57324C15.8984 1.57324 13.4578 1.57324 11.0172 1.57324C10.3297 1.57324 9.6336 1.57324 8.9461 1.57324C6.87501 1.57324 5.38829 3.72168 6.12735 5.65527C6.48829 6.60918 7.31329 7.31387 8.31016 7.5373C8.64532 7.61465 8.97188 7.60605 9.31563 7.60605C10.3727 7.60605 11.4383 7.60605 12.4953 7.60605C14.5836 7.60605 16.6633 7.60605 18.7516 7.60605C19.568 7.60605 19.568 6.31699 18.7344 6.31699ZM25.1883 28.0248C25.2141 30.0357 26.3484 31.8834 28.1531 32.7857C29.9922 33.7053 32.2352 33.4303 33.825 32.1498C35.1141 31.11 35.8016 29.5459 35.8016 27.8959C35.8016 26.8131 35.8016 25.7389 35.8016 24.6561C35.8016 23.4443 35.8016 22.2412 35.8016 21.0295C35.8016 20.6771 35.5094 20.385 35.157 20.385C32.0461 20.385 28.9352 20.385 25.8328 20.385C25.4805 20.385 25.1883 20.6771 25.1883 21.0295C25.1883 23.367 25.1883 25.6959 25.1883 28.0248C25.1883 28.8584 26.4774 28.8584 26.4774 28.0248C26.4774 25.6959 26.4774 23.3584 26.4774 21.0295C26.2625 21.2443 26.0477 21.4592 25.8328 21.674C28.9438 21.674 32.0547 21.674 35.157 21.674C34.9422 21.4592 34.7273 21.2443 34.5125 21.0295C34.5125 23.1436 34.5125 25.2662 34.5125 27.3803C34.5125 27.6725 34.5211 27.9646 34.5039 28.2654C34.4695 29.1592 34.0742 30.0357 33.4813 30.7061C32.2266 32.124 30.1297 32.4334 28.4969 31.5139C27.2422 30.8092 26.4859 29.4514 26.4688 28.0248C26.4688 27.1998 25.1797 27.1998 25.1883 28.0248ZM34.5125 6.96152C34.5125 10.8717 34.5125 14.7732 34.5125 18.6834C34.5125 18.692 34.5125 18.7006 34.5125 18.7006C34.7273 18.4857 34.9422 18.2709 35.157 18.0561C32.0461 18.0561 28.9352 18.0561 25.8242 18.0561C26.0391 18.2709 26.2539 18.4857 26.4688 18.7006C26.4688 14.7904 26.4688 10.8889 26.4688 6.97871C26.4688 6.97012 26.4688 6.96152 26.4688 6.96152C26.4688 6.12793 25.1797 6.12793 25.1797 6.96152C25.1797 10.8717 25.1797 14.7732 25.1797 18.6834C25.1797 18.692 25.1797 18.7006 25.1797 18.7006C25.1797 19.0529 25.4719 19.3451 25.8242 19.3451C28.9352 19.3451 32.0461 19.3451 35.157 19.3451C35.5094 19.3451 35.8016 19.0529 35.8016 18.7006C35.8016 14.7904 35.8016 10.8889 35.8016 6.97871C35.8016 6.97012 35.8016 6.96152 35.8016 6.96152C35.8016 6.12793 34.5125 6.12793 34.5125 6.96152Z" fill="black"/>
<path d="M35.3976 6.31699C33.3695 6.31699 31.3414 6.31699 29.3133 6.31699C28.2219 6.31699 27.1304 6.31699 26.039 6.31699C25.7984 6.31699 25.5406 6.33418 25.3086 6.29121C24.4836 6.14512 23.8734 5.41465 23.8734 4.58965C23.8734 3.74746 24.518 2.98262 25.3601 2.8709C25.5922 2.84512 25.8414 2.8623 26.0734 2.8623C27.182 2.8623 28.282 2.8623 29.3906 2.8623C31.4273 2.8623 33.4726 2.81934 35.5094 2.8623C36.4031 2.88809 37.1164 3.72168 37.1164 4.58965C37.125 5.55215 36.3429 6.29121 35.3976 6.31699C34.564 6.33418 34.564 7.62324 35.3976 7.60605C37.5375 7.55449 39.0242 5.36309 38.1476 3.36934C37.7523 2.4584 36.893 1.79668 35.9219 1.6248C35.6125 1.57324 35.3117 1.57324 34.9937 1.57324C32.5531 1.57324 30.1125 1.57324 27.6719 1.57324C26.9844 1.57324 26.2883 1.57324 25.6008 1.57324C23.5297 1.57324 22.043 3.72168 22.782 5.65527C23.143 6.60918 23.9679 7.31387 24.9648 7.5373C25.3 7.61465 25.6265 7.60605 25.9703 7.60605C27.0273 7.60605 28.093 7.60605 29.15 7.60605C31.2383 7.60605 33.318 7.60605 35.4062 7.60605C36.2312 7.60605 36.2312 6.31699 35.3976 6.31699Z" fill="black"/>
<path d="M5.07031 37.6327C5.07031 33.3702 5.07031 29.0991 5.07031 24.8366C5.07031 23.5647 5.07031 22.3014 5.07031 21.0295C4.85547 21.2444 4.64062 21.4592 4.42578 21.6741C5.19922 21.6741 5.98125 21.6741 6.75469 21.6741C6.53984 21.4592 6.325 21.2444 6.11016 21.0295C6.11016 25.292 6.11016 29.5631 6.11016 33.8256C6.11016 35.0288 6.11016 36.2319 6.11016 37.435C6.11016 38.2686 7.39922 38.2686 7.39922 37.435C7.39922 33.1725 7.39922 28.9014 7.39922 24.6389C7.39922 23.4358 7.39922 22.2327 7.39922 21.0295C7.39922 20.6772 7.10703 20.385 6.75469 20.385C5.98125 20.385 5.19922 20.385 4.42578 20.385C4.07344 20.385 3.78125 20.6772 3.78125 21.0295C3.78125 25.292 3.78125 29.5631 3.78125 33.8256C3.78125 35.0975 3.78125 36.3608 3.78125 37.6327C3.78125 38.4663 5.07031 38.4663 5.07031 37.6327Z" fill="black"/>
<path d="M40.2187 37.6327C40.2187 33.3702 40.2187 29.0991 40.2187 24.8366C40.2187 23.5647 40.2187 22.3014 40.2187 21.0295C40.2187 20.6772 39.9266 20.385 39.5742 20.385C38.8008 20.385 38.0187 20.385 37.2453 20.385C36.893 20.385 36.6008 20.6772 36.6008 21.0295C36.6008 25.292 36.6008 29.5631 36.6008 33.8256C36.6008 35.0288 36.6008 36.2319 36.6008 37.435C36.6008 38.2686 37.8898 38.2686 37.8898 37.435C37.8898 33.1725 37.8898 28.9014 37.8898 24.6389C37.8898 23.4358 37.8898 22.2327 37.8898 21.0295C37.675 21.2444 37.4601 21.4592 37.2453 21.6741C38.0187 21.6741 38.8008 21.6741 39.5742 21.6741C39.3594 21.4592 39.1445 21.2444 38.9297 21.0295C38.9297 25.292 38.9297 29.5631 38.9297 33.8256C38.9297 35.0975 38.9297 36.3608 38.9297 37.6327C38.9297 38.4663 40.2187 38.4663 40.2187 37.6327Z" fill="black"/>
<path d="M37.0476 18.0562C33.4297 18.0562 29.8117 18.0562 26.2023 18.0562C22.4554 18.0562 18.7086 18.0562 14.9617 18.0562C10.7508 18.0562 6.53982 18.0562 2.32888 18.0562C2.19138 18.0562 2.05388 18.0562 1.91638 18.0562C1.56404 18.0562 1.27185 18.3483 1.27185 18.7007C1.27185 19.4741 1.27185 20.2562 1.27185 21.0296C1.27185 21.3819 1.56404 21.6741 1.91638 21.6741C5.80076 21.6741 9.68513 21.6741 13.5609 21.6741C16.8179 21.6741 20.075 21.6741 23.332 21.6741C23.1172 21.4593 22.9023 21.2444 22.6875 21.0296C22.6875 25.2663 22.6875 29.4944 22.6875 33.7312C22.6875 34.9687 22.6875 36.1976 22.6875 37.4351C22.9023 37.2202 23.1172 37.0054 23.332 36.7905C22.4469 36.7905 21.5531 36.7905 20.6679 36.7905C20.8828 37.0054 21.0976 37.2202 21.3125 37.4351C21.3125 33.2069 21.3125 28.9788 21.3125 24.7507C21.3125 23.5132 21.3125 22.2757 21.3125 21.0296C21.0976 21.2444 20.8828 21.4593 20.6679 21.6741C24.4578 21.6741 28.2476 21.6741 32.0289 21.6741C35.3804 21.6741 38.732 21.6741 42.0836 21.6741C42.4359 21.6741 42.7281 21.3819 42.7281 21.0296C42.7281 20.2562 42.7281 19.4741 42.7281 18.7007C42.7281 18.3483 42.4359 18.0562 42.0836 18.0562C40.4078 18.0562 38.7234 18.0562 37.0476 18.0562C36.214 18.0562 36.214 19.3452 37.0476 19.3452C38.732 19.3452 40.4078 19.3452 42.0922 19.3452C41.8773 19.1304 41.6625 18.9155 41.4476 18.7007C41.4476 19.4741 41.4476 20.2562 41.4476 21.0296C41.6625 20.8147 41.8773 20.5999 42.0922 20.3851C38.1218 20.3851 34.1515 20.3851 30.1812 20.3851C27.0101 20.3851 23.8476 20.3851 20.6765 20.3851C20.3242 20.3851 20.032 20.6772 20.032 21.0296C20.032 25.1288 20.032 29.228 20.032 33.3187C20.032 34.6851 20.032 36.0601 20.032 37.4265C20.032 37.7788 20.3242 38.071 20.6765 38.071C21.5617 38.071 22.4554 38.071 23.3406 38.071C23.6929 38.071 23.9851 37.7788 23.9851 37.4265C23.9851 33.1382 23.9851 28.8499 23.9851 24.5616C23.9851 23.3843 23.9851 22.1983 23.9851 21.021C23.9851 20.6687 23.6929 20.3765 23.3406 20.3765C19.4562 20.3765 15.5804 20.3765 11.6961 20.3765C8.43904 20.3765 5.18201 20.3765 1.92498 20.3765C2.13982 20.5913 2.35466 20.8062 2.56951 21.021C2.56951 20.2476 2.56951 19.4655 2.56951 18.6921C2.35466 18.9069 2.13982 19.1218 1.92498 19.3366C5.83513 19.3366 9.74529 19.3366 13.6554 19.3366C17.6172 19.3366 21.5789 19.3366 25.5406 19.3366C29.3047 19.3366 33.0687 19.3366 36.8328 19.3366C36.9101 19.3366 36.9789 19.3366 37.0562 19.3366C37.8726 19.3452 37.8726 18.0562 37.0476 18.0562Z" fill="black"/>
<path d="M26.2883 10.82C26.7094 10.4591 27.3195 10.4419 27.8523 10.4763C28.6516 10.5193 29.4336 10.7341 30.2156 10.8974C31.8742 11.2583 33.6961 11.6365 35.3289 10.9833C35.6555 10.8544 35.8789 10.5536 35.7758 10.1927C35.6898 9.88333 35.3117 9.60833 34.9851 9.74583C33.3437 10.399 31.5391 9.87474 29.8891 9.5138C28.3937 9.18724 26.6406 8.8263 25.3687 9.90911C24.7414 10.4505 25.6609 11.3615 26.2883 10.82Z" fill="black"/>
<path d="M9.625 15.7099C10.0461 15.349 10.6562 15.3318 11.1891 15.3662C11.9883 15.4092 12.7703 15.624 13.5523 15.7873C15.2109 16.1482 17.0328 16.5263 18.6656 15.8732C18.9922 15.7443 19.2156 15.4435 19.1125 15.0826C19.0266 14.7732 18.6484 14.4982 18.3219 14.6357C16.6805 15.2888 14.8758 14.7646 13.2258 14.4037C11.7305 14.0771 9.97734 13.7162 8.70547 14.799C8.08672 15.3404 8.99765 16.2513 9.625 15.7099Z" fill="black"/>
</svg>
