<svg width="13" height="21" viewBox="0 0 13 21" fill="none" xmlns="http://www.w3.org/2000/svg">
<path fill-rule="evenodd" clip-rule="evenodd" d="M11.256 9.21201L10.9336 11.5622H7.06074V19.7878H4.70716V11.5622H1.17679V9.21201H4.70716V7.05807C4.70716 4.06983 6.54531 2.13797 9.39196 2.13797C10.6111 2.13797 11.3713 2.20261 11.8103 2.26136L11.7761 4.48698L9.96623 4.49051C9.91681 4.48581 8.73767 4.39415 7.88684 5.17441C7.33847 5.67617 7.06074 6.39767 7.06074 7.3166V9.21202H11.256V9.21201ZM8.67648 6.04515C9.14013 5.61389 9.86267 5.66089 9.91563 5.66325L12.9353 5.66207L13 1.31307L12.5458 1.20143C12.2539 1.12977 11.3607 0.962891 9.39196 0.962891C5.8863 0.962891 3.53037 3.41295 3.53037 7.05807V8.03692H0V12.7373H3.53037V20.9629H8.23753V12.7373H11.9585L12.6046 8.03692H8.23754V7.31659C8.23754 6.74433 8.38581 6.31659 8.67648 6.04515Z" fill="#1D1A5B"/>
</svg>
