<svg width="44" height="45" viewBox="0 0 44 45" fill="none" xmlns="http://www.w3.org/2000/svg">
<g clip-path="url(#clip0_472_1958)">
<path fill-rule="evenodd" clip-rule="evenodd" d="M22.6036 5.65697C22.5391 5.55531 22.4499 5.4716 22.3444 5.4136C22.2389 5.35561 22.1204 5.3252 22 5.3252C21.8796 5.3252 21.7611 5.35561 21.6556 5.4136C21.5501 5.4716 21.4609 5.55531 21.3964 5.65697C21.3964 5.65697 16.4773 13.3762 13.5252 20.3234C12.2251 23.3835 11.3149 26.304 11.3149 28.3857C11.3149 34.2831 16.1026 39.0708 22 39.0708C27.8974 39.0708 32.6851 34.2831 32.6851 28.3857C32.6851 26.304 31.7749 23.3835 30.4748 20.3234C27.5227 13.3762 22.6036 5.65697 22.6036 5.65697ZM22 7.39634C23.3901 9.6596 26.8716 15.5061 29.1562 20.8837C30.3683 23.7355 31.2524 26.4456 31.2524 28.3857C31.2524 33.4925 27.1068 37.6381 22 37.6381C16.8933 37.6381 12.7476 33.4925 12.7476 28.3857C12.7476 26.4456 13.6318 23.7355 14.8438 20.8837C17.1284 15.5061 20.6099 9.65891 22 7.39634Z" fill="black"/>
<path fill-rule="evenodd" clip-rule="evenodd" d="M21.485 35.9689C21.485 35.9689 26.5512 36.7719 28.8454 31.4177C28.8824 31.3313 28.9021 31.2384 28.9032 31.1444C28.9043 31.0505 28.8869 30.9572 28.852 30.8699C28.8171 30.7826 28.7653 30.7031 28.6997 30.6358C28.634 30.5686 28.5558 30.5149 28.4693 30.4779C28.3829 30.4409 28.2901 30.4212 28.1961 30.4201C28.1021 30.419 28.0088 30.4363 27.9216 30.4713C27.8343 30.5062 27.7548 30.5579 27.6875 30.6236C27.6202 30.6893 27.5666 30.7675 27.5295 30.8539C25.6987 35.1247 21.7002 34.5527 21.7002 34.5527C21.5169 34.5337 21.3334 34.586 21.1876 34.6987C21.0418 34.8115 20.9451 34.976 20.9174 35.1582C20.8897 35.3404 20.9332 35.5262 21.0389 35.6772C21.1446 35.8282 21.3044 35.9326 21.485 35.9689ZM26.9342 25.0996C27.2482 24.9442 27.5126 24.7042 27.6975 24.4066C27.8824 24.109 27.9805 23.7656 27.9805 23.4152V23.3622C27.98 22.8637 27.7817 22.3858 27.4292 22.0333C27.0767 21.6808 26.5987 21.4825 26.1002 21.4819H22.9226C22.5266 21.4819 22.2062 21.8023 22.2062 22.1983V28.3308C22.2062 28.7268 22.5266 29.0472 22.9226 29.0472H26.1002C26.3471 29.0473 26.5916 28.9987 26.8197 28.9043C27.0479 28.8099 27.2552 28.6714 27.4298 28.4969C27.6044 28.3223 27.7429 28.1151 27.8374 27.887C27.9319 27.6589 27.9805 27.4145 27.9805 27.1676V26.786C27.9806 26.4354 27.8827 26.0918 27.6978 25.7939C27.5129 25.496 27.2484 25.2551 26.9342 25.0996ZM23.6383 27.6158V22.9133H26.1002C26.219 22.9137 26.3328 22.961 26.4168 23.045C26.5008 23.129 26.5481 23.2428 26.5485 23.3616V23.4145C26.5485 23.6276 26.3972 23.8112 26.1882 23.8531L24.4104 24.2092C24.2589 24.2393 24.1213 24.3175 24.018 24.4322C23.9146 24.5469 23.8512 24.6919 23.837 24.8456C23.8229 24.9994 23.8588 25.1535 23.9394 25.2852C24.0201 25.4168 24.1412 25.5188 24.2845 25.576L26.2666 26.3687C26.4371 26.4374 26.5485 26.6017 26.5485 26.7853V27.1662C26.5485 27.4137 26.3477 27.6144 26.1002 27.6144H23.6383V27.6158ZM17.963 27.0397H19.9629L20.5177 28.5639C20.5827 28.7423 20.7159 28.8876 20.8881 28.9678C21.0602 29.048 21.2571 29.0565 21.4355 28.9915C21.614 28.9265 21.7592 28.7933 21.8394 28.6212C21.9196 28.449 21.9282 28.2521 21.8632 28.0737L19.6357 21.9536C19.585 21.816 19.4937 21.6972 19.3738 21.613C19.2539 21.5287 19.1112 21.483 18.9647 21.4819H18.9612C18.8145 21.4826 18.6715 21.5281 18.5514 21.6124C18.4313 21.6967 18.3399 21.8158 18.2895 21.9536L16.062 28.0737C16.007 28.2497 16.0219 28.4402 16.1037 28.6055C16.1854 28.7709 16.3277 28.8984 16.5011 28.9615C16.6744 29.0246 16.8654 29.0185 17.0343 28.9444C17.2032 28.8704 17.3371 28.7341 17.4082 28.5639L17.963 27.0397ZM18.4841 25.6069H19.4411L18.9626 24.2924L18.4841 25.6069Z" fill="black"/>
</g>
<defs>
<clipPath id="clip0_472_1958">
<rect width="44" height="44" fill="white" transform="translate(0 0.198242)"/>
</clipPath>
</defs>
</svg>
