<svg width="44" height="45" viewBox="0 0 44 45" fill="none" xmlns="http://www.w3.org/2000/svg">
<path d="M36.14 21.5885C36.14 28.2668 30.0862 33.8141 22.445 33.8141C14.8038 33.8141 8.75 28.2668 8.75 21.5885V7.21794C8.75 4.38115 11.3368 1.94824 14.7014 1.94824H30.1886C33.5532 1.94824 36.14 4.38115 36.14 7.21794V21.5885Z" stroke="black" stroke-width="1.5"/>
<path d="M29.2091 18.9858H15.6812C15.1946 18.9858 14.9408 18.6486 14.9408 18.397V6.2453C14.9408 5.99375 15.1946 5.65649 15.6812 5.65649H29.2091C29.6957 5.65649 29.9495 5.99375 29.9495 6.2453V18.397C29.9495 18.6486 29.6957 18.9858 29.2091 18.9858Z" stroke="black" stroke-width="1.5"/>
<path d="M16.0877 22.5073H21.3199V26.849H18.7974C16.5898 26.849 14.9409 25.2586 14.9409 23.4612C14.9409 23.008 15.3767 22.5073 16.0877 22.5073Z" stroke="black" stroke-width="1.5"/>
<path d="M23.5703 27.5992V26.8492H22.8203V27.5992H23.5703ZM22.8203 22.5073H23.5703V21.7573H22.8203V22.5073Z" stroke="black" stroke-width="1.5"/>
<path d="M19.6379 13.5994C19.6379 13.3472 19.7853 12.865 20.1175 12.1858C20.4325 11.5417 20.8595 10.8259 21.2966 10.149C21.7095 9.50976 22.1234 8.91734 22.4453 8.47033C22.7671 8.91734 23.1811 9.50976 23.5939 10.149C24.031 10.8259 24.458 11.5417 24.7731 12.1858C25.1052 12.865 25.2526 13.3472 25.2526 13.5994C25.2526 14.8765 24.0735 16.0449 22.4453 16.0449C20.817 16.0449 19.6379 14.8765 19.6379 13.5994Z" stroke="black" stroke-width="1.5"/>
<path d="M20.5929 41.8145V33.1401H24.4301V41.8145H20.5929Z" stroke="black"/>
</svg>
