<svg width="44" height="45" viewBox="0 0 44 45" fill="none" xmlns="http://www.w3.org/2000/svg">
<g clip-path="url(#clip0_472_1684)">
<path d="M24.0548 39.0333C22.0328 39.0291 20.02 38.7624 18.0666 38.2401C13.1742 36.9424 8.9736 34.1959 6.23735 30.5057C3.46673 26.7691 2.52313 22.5135 3.58188 18.5252C4.64063 14.5368 7.56766 11.3064 11.8267 9.43641C16.0316 7.58875 21.0409 7.28797 25.9334 8.58305C30.8258 9.87813 35.0264 12.6273 37.7627 16.3174C40.5342 20.0531 41.4769 24.3096 40.419 28.298C39.3611 32.2863 36.4324 35.5167 32.1733 37.3867C29.6854 38.4807 26.9156 39.0333 24.0548 39.0333ZM19.9435 9.17344C17.2743 9.17344 14.6945 9.68906 12.381 10.7031C8.51642 12.4013 5.86524 15.3059 4.91649 18.8809C3.96774 22.4559 4.83056 26.2922 7.34681 29.6841C9.89743 33.1216 13.8299 35.6869 18.4207 36.9029C23.0115 38.1189 27.702 37.843 31.6181 36.1209C35.4853 34.4219 38.1348 31.518 39.0835 27.943C40.0323 24.368 39.1695 20.5309 36.6532 17.1398C34.1026 13.7023 30.1701 11.1363 25.5793 9.92109C23.7409 9.42928 21.8465 9.17796 19.9435 9.17344Z" fill="black"/>
<path d="M26.7197 26.9307C24.8772 26.9157 23.0442 26.6636 21.2661 26.1805C14.8131 24.4686 10.462 20.4742 11.3601 17.0866C11.8121 15.3841 13.4862 14.1561 16.0738 13.6293C16.1626 13.6112 16.2542 13.6109 16.3432 13.6282C16.4322 13.6455 16.517 13.6802 16.5926 13.7303C16.6682 13.7804 16.7332 13.8448 16.7839 13.92C16.8346 13.9952 16.87 14.0797 16.888 14.1686C16.9061 14.2574 16.9064 14.349 16.8891 14.438C16.8718 14.527 16.8371 14.6118 16.787 14.6874C16.737 14.763 16.6725 14.828 16.5973 14.8787C16.5221 14.9294 16.4376 14.9648 16.3488 14.9828C14.3327 15.3936 12.9972 16.2891 12.6956 17.4406C12.3939 18.5922 13.1029 20.0299 14.6506 21.386C16.3505 22.8753 18.8255 24.1042 21.6202 24.845C24.4149 25.5858 27.1734 25.7465 29.3906 25.2919C31.4067 24.8811 32.7379 23.9856 33.0438 22.8341C33.4452 21.3199 32.0985 19.3656 29.5333 17.7345C29.3786 17.6363 29.2694 17.4807 29.2295 17.3019C29.1896 17.123 29.2224 16.9357 29.3206 16.7811C29.4188 16.6264 29.5745 16.5171 29.7533 16.4772C29.9321 16.4374 30.1194 16.4701 30.2741 16.5684C33.4142 18.5647 34.9491 21.0371 34.3793 23.1856C33.7442 25.5746 30.7089 26.9307 26.7197 26.9307ZM23.467 33.8435C23.049 33.8418 22.6331 33.7861 22.2295 33.6777C20.411 33.1981 19.25 31.8395 19.5774 30.5917C19.7493 29.942 20.3036 29.4358 21.0977 29.2038C21.7852 29.0035 22.6024 29.0113 23.4102 29.2252C24.2181 29.4392 24.9356 29.8397 25.4298 30.3527C26.0038 30.9483 26.2341 31.6624 26.0623 32.3113C25.8088 33.2677 24.7603 33.8435 23.467 33.8435ZM22.1641 30.4404C21.9352 30.437 21.7069 30.4659 21.4861 30.5263C21.1716 30.6183 20.9576 30.7738 20.9129 30.9423C20.8166 31.3049 21.4199 32.0294 22.5835 32.3388C23.7471 32.6481 24.6306 32.3173 24.7268 31.9538C24.7715 31.7819 24.6623 31.5438 24.4355 31.3084C24.1184 30.9792 23.6156 30.7068 23.0605 30.5573C22.768 30.4798 22.4667 30.4405 22.1641 30.4404ZM30.0884 34.7631C29.0993 34.7631 28.2915 34.2999 28.1007 33.5445C27.9709 33.0288 28.1523 32.4737 28.5991 32.0216C29.0132 31.6354 29.5183 31.3602 30.0673 31.2215C30.6163 31.0828 31.1915 31.0852 31.7393 31.2284C32.3469 31.4141 32.7706 31.8163 32.9003 32.3319C33.0301 32.8475 32.8496 33.4027 32.4027 33.8556C31.9949 34.2495 31.489 34.527 30.9375 34.6591C30.6599 34.7288 30.3747 34.7637 30.0884 34.7631ZM29.4413 33.2059C29.4989 33.2918 29.9312 33.4834 30.5963 33.3159C31.2615 33.1483 31.552 32.7753 31.5606 32.6705C31.503 32.5845 31.0699 32.3929 30.4056 32.5605C29.7413 32.7289 29.4499 33.101 29.4413 33.2059ZM10.5574 28.3212C10.0994 28.3212 9.64821 28.0891 9.29329 27.6655C8.94068 27.2211 8.71392 26.6901 8.63673 26.1281C8.42618 24.7531 9.02946 23.5637 10.0117 23.4124C10.994 23.2612 11.9273 24.2185 12.1378 25.5901C12.3484 26.9616 11.7451 28.1545 10.7628 28.3057C10.6948 28.316 10.6262 28.3211 10.5574 28.3212ZM10.2206 24.7763C10.1277 24.8252 9.89829 25.2386 10.0023 25.9158C10.1063 26.593 10.4491 26.9178 10.5523 26.9367C10.6459 26.8877 10.8754 26.4752 10.7714 25.7972C10.6674 25.12 10.3245 24.7977 10.2206 24.7763Z" fill="black"/>
<path d="M18.9226 33.3513C17.936 33.3513 16.8291 32.5924 16.1236 31.3343C15.2032 29.6938 15.3656 27.9132 16.4914 27.2824C17.6172 26.6516 19.2208 27.4414 20.1412 29.0819C21.0616 30.7224 20.8992 32.5022 19.7725 33.1339C19.5128 33.2786 19.2199 33.3535 18.9226 33.3513ZM17.3594 28.4442C17.294 28.4424 17.2293 28.4572 17.1712 28.4872C16.8438 28.6711 16.7415 29.6044 17.3327 30.6589C17.924 31.7133 18.7739 32.1129 19.1013 31.929C19.4288 31.7451 19.531 30.8075 18.9398 29.7574C18.4388 28.8696 17.753 28.4442 17.3594 28.4442ZM6.64556 8.9244C5.08407 8.9244 3.92564 8.27042 3.40399 7.00456C2.55321 4.94206 3.96087 2.91823 7.16806 1.59651C8.65649 0.982917 9.87165 0.721666 10.8831 0.79987C12.198 0.897838 13.1553 1.58448 13.6495 2.78589C14.4874 4.82003 13.0479 6.89198 9.8854 8.19393C8.69173 8.68292 7.59431 8.9244 6.64556 8.9244ZM10.5239 2.17487C9.85704 2.17487 8.94696 2.36135 7.69485 2.87698C6.53814 3.35393 3.92993 4.65846 4.68103 6.48635C5.29462 7.97565 7.49978 7.68948 9.35946 6.92206C11.2192 6.15463 12.986 4.7994 12.375 3.30924C12.2341 2.97237 11.9032 2.17487 10.5239 2.17487Z" fill="black"/>
<path d="M7.35711 5.71461C7.1949 5.71895 7.03638 5.66578 6.9096 5.56449C6.78282 5.46321 6.69595 5.32034 6.66437 5.16118C6.63278 5.00201 6.65851 4.8368 6.73701 4.69478C6.81551 4.55276 6.94171 4.44308 7.09329 4.38516L9.28125 3.48453C9.4506 3.41479 9.64071 3.41517 9.80977 3.4856C9.97884 3.55603 10.113 3.69073 10.1827 3.86008C10.2525 4.02942 10.2521 4.21954 10.1817 4.3886C10.1112 4.55766 9.97654 4.69182 9.80719 4.76156L7.62008 5.66219C7.53677 5.69693 7.44738 5.71475 7.35711 5.71461ZM37.8211 11.9434C37.2344 11.9319 36.6638 11.7491 36.1797 11.4174C35.4063 10.9112 34.6732 10.0519 34.0665 8.93211C33.4598 7.81234 33.1366 6.72953 33.1349 5.81086C33.1349 4.67648 33.6273 3.78187 34.5314 3.29289C35.4664 2.78672 36.4667 2.85633 37.4232 3.49398C38.1717 3.99328 38.891 4.85609 39.5046 5.98617C41.3686 9.43055 40.2823 10.9534 39.0423 11.6245C38.6684 11.8315 38.2485 11.9412 37.8211 11.9434ZM35.7921 4.34219C35.5808 4.3456 35.3738 4.40267 35.1905 4.50805C34.7359 4.75383 34.5159 5.17922 34.5177 5.80656C34.5177 6.48719 34.7918 7.36289 35.2851 8.27383C35.7784 9.18476 36.3619 9.8843 36.9377 10.2598C37.4662 10.6036 37.9405 10.6543 38.3866 10.4128C38.7973 10.1902 39.8896 9.59898 38.2912 6.64703C37.785 5.71117 37.2204 5.01422 36.6584 4.64383C36.3189 4.41867 36.0319 4.34219 35.7921 4.34219Z" fill="black"/>
<path d="M37.516 8.92767C37.3914 8.92798 37.269 8.89439 37.162 8.83051C37.055 8.76663 36.9673 8.67486 36.9084 8.56502L35.9683 6.82908C35.8811 6.66794 35.8615 6.47877 35.9138 6.30318C35.9661 6.12759 36.086 5.97997 36.2472 5.89279C36.4083 5.80561 36.5975 5.78602 36.7731 5.83831C36.9486 5.89061 37.0963 6.01052 37.1834 6.17166L38.1236 7.9076C38.1817 8.0127 38.2113 8.13119 38.2093 8.25127C38.2074 8.37135 38.174 8.48883 38.1126 8.59201C38.0511 8.69519 37.9637 8.78047 37.859 8.83936C37.7544 8.89826 37.6361 8.9287 37.516 8.92767ZM12.0459 43.6172C11.2269 43.6172 10.2747 43.3809 9.24259 42.8996C8.13399 42.384 7.26602 41.7378 6.74438 41.0331C6.09126 40.1574 5.96149 39.1803 6.38001 38.2831C6.8097 37.367 7.64329 36.8316 8.73384 36.7766C9.59321 36.7336 10.6399 36.9854 11.7571 37.5062C12.937 38.0562 13.7612 38.6397 14.2751 39.2894C14.9626 40.1565 15.0795 41.1362 14.6188 42.1253C14.1582 43.1145 13.2447 43.6172 12.0459 43.6172ZM8.93751 38.1524C8.89368 38.1524 8.85157 38.1524 8.80688 38.1524C8.03345 38.1911 7.76962 38.5761 7.63556 38.8623C7.50149 39.1485 7.38977 39.579 7.85556 40.2038C8.2397 40.7194 8.94095 41.2299 9.83212 41.6441C11.1547 42.2611 12.876 42.6023 13.3736 41.5358C13.6108 41.0262 13.5567 40.5965 13.1974 40.1428C12.8253 39.6718 12.1464 39.2052 11.1796 38.754C10.3211 38.3604 9.55024 38.1524 8.93751 38.1524Z" fill="black"/>
<path d="M11.4976 41.0735C11.3968 41.0737 11.2973 41.0514 11.2063 41.0082L9.50212 40.2142C9.4199 40.1758 9.34605 40.1216 9.28478 40.0547C9.22351 39.9878 9.17601 39.9094 9.14501 39.8242C9.11401 39.7389 9.1001 39.6484 9.10409 39.5577C9.10808 39.4671 9.12988 39.3781 9.16825 39.2959C9.20662 39.2137 9.26081 39.1398 9.32772 39.0786C9.39463 39.0173 9.47296 38.9698 9.55823 38.9388C9.64349 38.9078 9.73403 38.8939 9.82467 38.8979C9.91531 38.9019 10.0043 38.9237 10.0865 38.962L11.7898 39.7561C11.9359 39.8199 12.0553 39.9324 12.1276 40.0745C12.1999 40.2166 12.2206 40.3795 12.186 40.5351C12.1515 40.6908 12.064 40.8296 11.9384 40.9278C11.8128 41.026 11.657 41.0775 11.4976 41.0735Z" fill="black"/>
</g>
<defs>
<clipPath id="clip0_472_1684">
<rect width="44" height="44" fill="white" transform="translate(0 0.198242)"/>
</clipPath>
</defs>
</svg>
