<svg width="44" height="45" viewBox="0 0 44 45" fill="none" xmlns="http://www.w3.org/2000/svg">
<path d="M28.1997 28.7762C28.1997 31.8402 26.8964 34.7785 24.5764 36.9452C22.2564 39.1117 19.1099 40.3289 15.8291 40.3289C12.5482 40.3289 9.40164 39.1117 7.08168 36.9452C4.76173 34.7785 3.4584 31.8402 3.4584 28.7762C3.4584 18.959 14.0539 7.40625 15.8291 7.40625C17.6042 7.40625 28.1997 18.959 28.1997 28.7762Z" stroke="black" stroke-width="2.75" stroke-linecap="round" stroke-linejoin="round"/>
<path d="M31.9997 27.372C34.4254 27.372 36.7515 26.4722 38.4667 24.8704C40.1818 23.2687 41.1453 21.0963 41.1453 18.831C41.1453 11.5732 33.3121 3.03223 31.9997 3.03223C31.1943 3.03223 27.9324 6.24958 25.5327 10.413" stroke="black" stroke-width="2.75" stroke-linecap="round" stroke-linejoin="round"/>
<path d="M10.9192 27.3713H20.739" stroke="black" stroke-width="2.75" stroke-linecap="round"/>
<path d="M15.8291 22.4622V32.2819" stroke="black" stroke-width="2.75" stroke-linecap="round"/>
<path d="M29.6182 16.5972H35.5821" stroke="black" stroke-width="2.75" stroke-linecap="round"/>
</svg>
