<svg width="44" height="45" viewBox="0 0 44 45" fill="none" xmlns="http://www.w3.org/2000/svg">
<path d="M19.2077 13.5674H9.39231L4.48462 22.0289L9.39231 30.4905H19.2077L24.1154 22.0289L19.2077 13.5674Z" stroke="black" stroke-width="2" stroke-linecap="round" stroke-linejoin="round"/>
<path d="M33.8462 22.0291H24.1154L19.2077 30.4906L24.1154 38.9521H33.8462L38.7539 30.4906L33.8462 22.0291Z" stroke="black" stroke-width="2" stroke-linecap="round" stroke-linejoin="round"/>
<path d="M33.8462 5.10596H24.1154L19.2077 13.5675L24.1154 22.029H33.8462L38.7539 13.5675L33.8462 5.10596Z" stroke="black" stroke-width="2" stroke-linecap="round" stroke-linejoin="round"/>
<path d="M33.8461 5.10599L35.3692 2.48291" stroke="black" stroke-width="2" stroke-linecap="round" stroke-linejoin="round"/>
<path d="M38.7538 13.5674H41.2923" stroke="black" stroke-width="2" stroke-linecap="round" stroke-linejoin="round"/>
<path d="M24.1154 5.10599L23.0154 2.48291" stroke="black" stroke-width="2" stroke-linecap="round" stroke-linejoin="round"/>
<path d="M38.7538 30.4905L42.3077 30.0674" stroke="black" stroke-width="2" stroke-linecap="round" stroke-linejoin="round"/>
<path d="M33.8461 38.9521L35.5384 41.9137" stroke="black" stroke-width="2" stroke-linecap="round" stroke-linejoin="round"/>
<path d="M24.1154 38.9521L22.8461 41.5752" stroke="black" stroke-width="2" stroke-linecap="round" stroke-linejoin="round"/>
<path d="M9.39228 13.5675L8.12305 11.1982" stroke="black" stroke-width="2" stroke-linecap="round" stroke-linejoin="round"/>
<path d="M4.48463 22.0291H1.69232" stroke="black" stroke-width="2" stroke-linecap="round" stroke-linejoin="round"/>
<path d="M9.3923 30.4905L7.53076 33.1982" stroke="black" stroke-width="2" stroke-linecap="round" stroke-linejoin="round"/>
<path d="M34.3538 13.0598L34.6077 13.5675" stroke="black" stroke-width="2" stroke-linecap="round" stroke-linejoin="round"/>
<path d="M31.9 8.8291L33.2539 11.1137" stroke="black" stroke-width="2" stroke-linecap="round" stroke-linejoin="round"/>
<path d="M19.8846 21.2676L20.1385 21.7753" stroke="black" stroke-width="2" stroke-linecap="round" stroke-linejoin="round"/>
<path d="M17.4308 17.0366L18.7 19.3212" stroke="black" stroke-width="2" stroke-linecap="round" stroke-linejoin="round"/>
<path d="M34.0154 29.9829L34.3538 30.4906" stroke="black" stroke-width="2" stroke-linecap="round" stroke-linejoin="round"/>
<path d="M31.6462 25.7522L32.9154 28.0368" stroke="black" stroke-width="2" stroke-linecap="round" stroke-linejoin="round"/>
</svg>
