<svg width="44" height="45" viewBox="0 0 44 45" fill="none" xmlns="http://www.w3.org/2000/svg">
<path fill-rule="evenodd" clip-rule="evenodd" d="M22 38.6983C31.1127 38.6983 38.5 31.311 38.5 22.1983C38.5 13.0856 31.1127 5.69832 22 5.69832C12.8873 5.69832 5.50002 13.0856 5.50002 22.1983C5.50002 31.311 12.8873 38.6983 22 38.6983ZM22 40.5317C32.1252 40.5317 40.3334 32.3235 40.3334 22.1983C40.3334 12.0731 32.1252 3.86499 22 3.86499C11.8748 3.86499 3.66669 12.0731 3.66669 22.1983C3.66669 32.3235 11.8748 40.5317 22 40.5317Z" fill="#333333"/>
<path fill-rule="evenodd" clip-rule="evenodd" d="M22 28.6149C25.5438 28.6149 28.4167 25.7421 28.4167 22.1982C28.4167 18.6544 25.5438 15.7816 22 15.7816C18.4562 15.7816 15.5833 18.6544 15.5833 22.1982C15.5833 25.7421 18.4562 28.6149 22 28.6149ZM22 30.4482C26.5564 30.4482 30.25 26.7546 30.25 22.1982C30.25 17.6419 26.5564 13.9482 22 13.9482C17.4436 13.9482 13.75 17.6419 13.75 22.1982C13.75 26.7546 17.4436 30.4482 22 30.4482Z" fill="#333333"/>
<mask id="mask0_472_1909" style="mask-type:alpha" maskUnits="userSpaceOnUse" x="17" y="20" width="7" height="7">
<path fill-rule="evenodd" clip-rule="evenodd" d="M20.625 25.865C21.8907 25.865 22.9167 24.839 22.9167 23.5733C22.9167 22.3077 21.8907 21.2817 20.625 21.2817C19.3594 21.2817 18.3334 22.3077 18.3334 23.5733C18.3334 24.839 19.3594 25.865 20.625 25.865ZM20.625 26.7817C22.3969 26.7817 23.8334 25.3452 23.8334 23.5733C23.8334 21.8014 22.3969 20.365 20.625 20.365C18.8531 20.365 17.4167 21.8014 17.4167 23.5733C17.4167 25.3452 18.8531 26.7817 20.625 26.7817Z" fill="#333333"/>
</mask>
<g mask="url(#mask0_472_1909)">
<path fill-rule="evenodd" clip-rule="evenodd" d="M24.75 20.365L18.3333 26.7816L17.037 25.4853L23.4537 19.0686L24.75 20.365Z" fill="#333333"/>
<path fill-rule="evenodd" clip-rule="evenodd" d="M22.9167 18.5317L16.5 24.9484L15.2037 23.652L21.6203 17.2354L22.9167 18.5317Z" fill="#333333"/>
<path fill-rule="evenodd" clip-rule="evenodd" d="M25.6667 23.115L19.25 29.5316L17.9537 28.2353L24.3703 21.8186L25.6667 23.115Z" fill="#333333"/>
</g>
<mask id="mask1_472_1909" style="mask-type:alpha" maskUnits="userSpaceOnUse" x="10" y="10" width="7" height="7">
<path fill-rule="evenodd" clip-rule="evenodd" d="M15.5833 13.4898C15.5833 12.2242 14.5573 11.1982 13.2916 11.1982C12.026 11.1982 11 12.2242 11 13.4898C11 14.7555 12.026 15.7815 13.2916 15.7815C14.5573 15.7815 15.5833 14.7555 15.5833 13.4898ZM16.5 13.4898C16.5 11.7179 15.0636 10.2815 13.2916 10.2815C11.5197 10.2815 10.0833 11.7179 10.0833 13.4898C10.0833 15.2617 11.5197 16.6982 13.2916 16.6982C15.0636 16.6982 16.5 15.2617 16.5 13.4898Z" fill="#333333"/>
</mask>
<g mask="url(#mask1_472_1909)">
<path fill-rule="evenodd" clip-rule="evenodd" d="M10.0833 9.36499L16.4999 15.7817L15.2036 17.078L8.78693 10.6613L10.0833 9.36499Z" fill="#333333"/>
<path fill-rule="evenodd" clip-rule="evenodd" d="M8.24998 11.1982L14.6666 17.6149L13.3703 18.9113L6.95361 12.4946L8.24998 11.1982Z" fill="#333333"/>
<path fill-rule="evenodd" clip-rule="evenodd" d="M12.8333 8.44824L19.2499 14.8649L17.9536 16.1613L11.5369 9.74459L12.8333 8.44824Z" fill="#333333"/>
</g>
<mask id="mask2_472_1909" style="mask-type:alpha" maskUnits="userSpaceOnUse" x="29" y="25" width="7" height="8">
<path fill-rule="evenodd" clip-rule="evenodd" d="M32.5416 31.365C33.8073 31.365 34.8333 30.339 34.8333 29.0733C34.8333 27.8077 33.8073 26.7817 32.5416 26.7817C31.276 26.7817 30.25 27.8077 30.25 29.0733C30.25 30.339 31.276 31.365 32.5416 31.365ZM32.5416 32.2817C34.3136 32.2817 35.75 30.8452 35.75 29.0733C35.75 27.3014 34.3136 25.865 32.5416 25.865C30.7697 25.865 29.3333 27.3014 29.3333 29.0733C29.3333 30.8452 30.7697 32.2817 32.5416 32.2817Z" fill="#333333"/>
</mask>
<g mask="url(#mask2_472_1909)">
<path fill-rule="evenodd" clip-rule="evenodd" d="M36.6666 25.865L30.25 32.2816L28.9536 30.9853L35.3703 24.5686L36.6666 25.865Z" fill="#333333"/>
<path fill-rule="evenodd" clip-rule="evenodd" d="M34.8333 24.0317L28.4167 30.4484L27.1203 29.152L33.537 22.7354L34.8333 24.0317Z" fill="#333333"/>
<path fill-rule="evenodd" clip-rule="evenodd" d="M37.5833 28.615L31.1667 35.0316L29.8703 33.7353L36.287 27.3186L37.5833 28.615Z" fill="#333333"/>
</g>
<path fill-rule="evenodd" clip-rule="evenodd" d="M28.4167 12.1149C28.923 12.1149 29.3334 11.7045 29.3334 11.1982C29.3334 10.692 28.923 10.2816 28.4167 10.2816C27.9104 10.2816 27.5 10.692 27.5 11.1982C27.5 11.7045 27.9104 12.1149 28.4167 12.1149ZM28.4167 13.9482C29.9355 13.9482 31.1667 12.7171 31.1667 11.1982C31.1667 9.67942 29.9355 8.44824 28.4167 8.44824C26.8979 8.44824 25.6667 9.67942 25.6667 11.1982C25.6667 12.7171 26.8979 13.9482 28.4167 13.9482Z" fill="#333333"/>
<path fill-rule="evenodd" clip-rule="evenodd" d="M11.9167 30.4482C12.423 30.4482 12.8334 30.0378 12.8334 29.5315C12.8334 29.0252 12.423 28.6148 11.9167 28.6148C11.4104 28.6148 11 29.0252 11 29.5315C11 30.0378 11.4104 30.4482 11.9167 30.4482ZM11.9167 32.2815C13.4355 32.2815 14.6667 31.0503 14.6667 29.5315C14.6667 28.0127 13.4355 26.7815 11.9167 26.7815C10.3979 26.7815 9.16669 28.0127 9.16669 29.5315C9.16669 31.0503 10.3979 32.2815 11.9167 32.2815Z" fill="#333333"/>
</svg>
