<svg width="44" height="45" viewBox="0 0 44 45" fill="none" xmlns="http://www.w3.org/2000/svg">
<path d="M8.98315 28.4314C8.98315 35.6089 14.8225 41.4482 22 41.4482C29.1775 41.4482 35.0169 35.6089 35.0169 28.4314C35.0169 22.8522 31.3759 17.8318 26.1124 16.0784V6.42204H26.1558C26.6163 6.42146 27.0577 6.23828 27.3833 5.91267C27.7089 5.58707 27.8921 5.14562 27.8927 4.68514C27.8921 4.22467 27.7089 3.78322 27.3833 3.45761C27.0577 3.13201 26.6163 2.94882 26.1558 2.94824H17.8442C17.3835 2.94882 16.9419 3.13216 16.6163 3.458C16.2906 3.78384 16.1076 4.22558 16.1073 4.68624C16.108 5.14662 16.2913 5.58793 16.6169 5.91342C16.9425 6.2389 17.3838 6.42201 17.8442 6.42259H17.8882V16.0778C12.6247 17.8318 8.98315 22.8522 8.98315 28.4314ZM22 40.3482C15.5243 40.3482 10.2421 35.1551 10.0903 28.7157C11.1694 28.0271 15.9858 25.3882 21.7118 28.8989C22.5094 29.3889 23.354 29.798 24.233 30.1199C24.2198 30.2288 24.2 30.336 24.2 30.4482C24.2 31.9646 25.4337 33.1982 26.95 33.1982C28.3564 33.1982 29.5064 32.1329 29.667 30.7694C31.1382 30.5915 32.5635 30.1421 33.8707 29.4439C33.3548 35.5418 28.2299 40.3482 22 40.3482ZM25.3 30.4482C25.3 29.5385 26.0403 28.7982 26.95 28.7982C27.8597 28.7982 28.6 29.5385 28.6 30.4482C28.6 31.3579 27.8597 32.0982 26.95 32.0982C26.0403 32.0982 25.3 31.3579 25.3 30.4482ZM17.8442 5.32259C17.6808 5.31428 17.5269 5.24352 17.4142 5.12493C17.3015 5.00635 17.2386 4.84901 17.2386 4.68542C17.2386 4.52182 17.3015 4.36448 17.4142 4.2459C17.5269 4.12732 17.6808 4.05656 17.8442 4.04824H26.1558C26.3192 4.05656 26.4731 4.12732 26.5858 4.2459C26.6985 4.36448 26.7614 4.52182 26.7614 4.68542C26.7614 4.84901 26.6985 5.00635 26.5858 5.12493C26.4731 5.24352 26.3192 5.31428 26.1558 5.32259H17.8442ZM25.0124 6.42259V16.8918L25.4051 17.0079C30.3248 18.4731 33.7799 23.0282 33.9053 28.1465C33.3355 28.5095 31.7526 29.4005 29.5752 29.6733C29.238 28.5359 28.1952 27.6982 26.95 27.6982C25.9353 27.6982 25.0575 28.257 24.5806 29.0765C23.7813 28.7811 23.0131 28.4075 22.2871 27.9611C18.5768 25.6869 15.2235 25.8106 13.0625 26.3139C12.0401 26.5518 11.0536 26.9233 10.1283 27.4188C10.5463 22.6008 13.909 18.4032 18.595 17.0079L18.9877 16.8918V6.42259H25.0124Z" fill="black"/>
<path d="M16.5 22.1983C16.5 23.4116 17.4867 24.3983 18.7 24.3983C19.9133 24.3983 20.9 23.4116 20.9 22.1983C20.9 20.985 19.9133 19.9983 18.7 19.9983C17.4867 19.9983 16.5 20.985 16.5 22.1983ZM19.8 22.1983C19.8 22.8049 19.3067 23.2983 18.7 23.2983C18.0934 23.2983 17.6 22.8049 17.6 22.1983C17.6 21.5916 18.0934 21.0983 18.7 21.0983C19.3067 21.0983 19.8 21.5916 19.8 22.1983ZM17.6 31.5483C16.3867 31.5483 15.4 32.535 15.4 33.7483C15.4 34.9616 16.3867 35.9483 17.6 35.9483C18.8133 35.9483 19.8 34.9616 19.8 33.7483C19.8 32.535 18.8133 31.5483 17.6 31.5483ZM17.6 34.8483C16.9934 34.8483 16.5 34.3549 16.5 33.7483C16.5 33.1416 16.9934 32.6483 17.6 32.6483C18.2067 32.6483 18.7 33.1416 18.7 33.7483C18.7 34.3549 18.2067 34.8483 17.6 34.8483Z" fill="black"/>
</svg>
