<svg width="20" height="21" viewBox="0 0 20 21" fill="none" xmlns="http://www.w3.org/2000/svg">
<g clip-path="url(#clip0_472_1290)">
<path fill-rule="evenodd" clip-rule="evenodd" d="M10 15.9629C12.7614 15.9629 15 13.7243 15 10.9629C15 8.20147 12.7614 5.96289 10 5.96289C7.23857 5.96289 5 8.20147 5 10.9629C5 13.7243 7.23857 15.9629 10 15.9629ZM10 14.2962C11.8409 14.2962 13.3333 12.8038 13.3333 10.9629C13.3333 9.12194 11.8409 7.62956 10 7.62956C8.15905 7.62956 6.66667 9.12194 6.66667 10.9629C6.66667 12.8038 8.15905 14.2962 10 14.2962Z" fill="#1D1A5B"/>
<path d="M14.9998 5.12891C14.5396 5.12891 14.1665 5.50201 14.1665 5.96224C14.1665 6.42247 14.5396 6.79557 14.9998 6.79557C15.4601 6.79557 15.8332 6.42247 15.8332 5.96224C15.8332 5.50201 15.4601 5.12891 14.9998 5.12891Z" fill="#1D1A5B"/>
<path fill-rule="evenodd" clip-rule="evenodd" d="M1.37846 4.52693C0.833496 5.59648 0.833496 6.99662 0.833496 9.79688V12.1302C0.833496 14.9305 0.833496 16.3306 1.37846 17.4001C1.85783 18.341 2.62273 19.1059 3.56355 19.5852C4.6331 20.1302 6.03324 20.1302 8.8335 20.1302H11.1668C13.9671 20.1302 15.3672 20.1302 16.4367 19.5852C17.3776 19.1059 18.1425 18.341 18.6218 17.4001C19.1668 16.3306 19.1668 14.9305 19.1668 12.1302V9.79688C19.1668 6.99662 19.1668 5.59648 18.6218 4.52693C18.1425 3.58611 17.3776 2.82121 16.4367 2.34184C15.3672 1.79688 13.9671 1.79688 11.1668 1.79688H8.8335C6.03324 1.79688 4.6331 1.79688 3.56355 2.34184C2.62273 2.82121 1.85783 3.58611 1.37846 4.52693ZM11.1668 3.46354H8.8335C7.40586 3.46354 6.43537 3.46484 5.68523 3.52613C4.95453 3.58583 4.58086 3.69403 4.3202 3.82685C3.69299 4.14643 3.18305 4.65637 2.86347 5.28358C2.73065 5.54424 2.62245 5.91791 2.56275 6.64861C2.50146 7.39875 2.50016 8.36924 2.50016 9.79688V12.1302C2.50016 13.5579 2.50146 14.5283 2.56275 15.2785C2.62245 16.0092 2.73065 16.3829 2.86347 16.6435C3.18305 17.2707 3.69299 17.7806 4.3202 18.1002C4.58086 18.233 4.95453 18.3413 5.68523 18.401C6.43537 18.4622 7.40586 18.4635 8.8335 18.4635H11.1668C12.5945 18.4635 13.5649 18.4622 14.3151 18.401C15.0458 18.3413 15.4195 18.233 15.6802 18.1002C16.3073 17.7806 16.8172 17.2707 17.1368 16.6435C17.2697 16.3829 17.3779 16.0092 17.4376 15.2785C17.4988 14.5283 17.5002 13.5579 17.5002 12.1302V9.79688C17.5002 8.36924 17.4988 7.39875 17.4376 6.64861C17.3779 5.91791 17.2697 5.54424 17.1368 5.28358C16.8172 4.65637 16.3073 4.14643 15.6802 3.82685C15.4195 3.69403 15.0458 3.58583 14.3151 3.52613C13.5649 3.46484 12.5945 3.46354 11.1668 3.46354Z" fill="#1D1A5B"/>
</g>
<defs>
<clipPath id="clip0_472_1290">
<rect width="20" height="20" fill="white" transform="translate(0 0.962891)"/>
</clipPath>
</defs>
</svg>
