<svg width="20" height="21" viewBox="0 0 20 21" fill="none" xmlns="http://www.w3.org/2000/svg">
<path fill-rule="evenodd" clip-rule="evenodd" d="M12.1899 7.22665V8.00743C12.9445 7.53946 13.8158 7.2667 15.1397 7.2667C19.4484 7.2667 20 10.4812 20 13.2815V20.9191L15.0181 20.9629V13.6581C15.0181 12.4319 14.578 12.1991 13.7644 12.1991C12.9909 12.1991 12.5108 12.4431 12.5108 13.6581V20.9629L7.46364 20.9191V7.22664L12.1899 7.22665ZM5.01454 7.2184V20.9571H0V7.21841L5.01454 7.2184ZM3.7609 8.46965H1.25363V19.7059H3.7609V8.46965ZM10.9362 8.4779H8.71728V19.6791L11.2572 19.7016V13.6581C11.2572 11.2995 12.828 10.9479 13.7644 10.9479C14.9077 10.9479 16.2717 11.4183 16.2717 13.6581V19.7016L18.7464 19.6791V13.2815C18.7464 9.80923 17.7698 8.51794 15.1397 8.51794C13.5588 8.51794 12.8743 8.98591 12.2036 9.54898L12.0294 9.69662H10.9362V8.4779ZM2.50727 0.962891C3.89003 0.962891 5.01454 2.08527 5.01454 3.46539C5.01454 4.84553 3.89003 5.96789 2.50727 5.96789C1.12451 5.96789 0 4.84553 0 3.46539C0 2.08527 1.12451 0.962891 2.50727 0.962891ZM2.50727 2.21414C1.81652 2.21414 1.25363 2.77595 1.25363 3.46539C1.25363 4.15483 1.81652 4.71664 2.50727 4.71664C3.19802 4.71664 3.7609 4.15483 3.7609 3.46539C3.7609 2.77595 3.19802 2.21414 2.50727 2.21414Z" fill="#1D1A5B"/>
</svg>
