<svg width="800" height="755" viewBox="0 0 800 755" fill="none" xmlns="http://www.w3.org/2000/svg">
<g opacity="0.6" filter="url(#filter0_f_535_285)">
<path d="M227.562 225.83L280.523 187.726L313.696 290.389L227.562 225.83Z" fill="#0984F0"/>
<path d="M382.702 288.119L433.084 232.138L376.966 168.436L349.529 185.456L382.702 288.119Z" fill="#0EACFE"/>
<path d="M179.1 360.912L174.92 424.613L198.622 411.701L179.1 360.912Z" fill="#0BD4FF"/>
<path d="M407.323 429.728L448.722 456.274L426.844 480.518L407.323 429.728Z" fill="#0059DA"/>
<path d="M151.298 269.857L100.916 325.839L142.315 352.385L151.298 269.857Z" fill="#0BD4FF"/>
<path d="M470.77 161.422L470.37 220.699L556.904 225.981L470.77 161.422Z" fill="#0060DC"/>
<path d="M631.491 226.306L669.2 285.268L718.025 231.588L631.491 226.306Z" fill="#0BD4FF"/>
<path d="M174.92 424.613L130.275 414.591L179.1 360.912L174.92 424.613Z" fill="#005FF4"/>
<path d="M125.361 281.31L182.591 320.903L235.552 282.8L187.082 256.118L125.361 281.31Z" fill="#0BD4FF"/>
<path d="M501.039 217.538L482.629 272.301L542.661 283.903L501.039 217.538Z" fill="#04FFC9"/>
<path d="M708.549 263.133L743.945 309.363L828.389 285.074L708.549 263.133Z" fill="#0BD4FF"/>
<path d="M472.872 269.801L473.272 210.523L353.032 247.86L472.872 269.801Z" fill="#2792FC"/>
<path d="M325.011 176.974L388.022 100.044L445.252 139.638L325.011 176.974Z" fill="#0060DC"/>
<path d="M134.742 317.233L219.187 292.944L200.777 347.707L134.742 317.233Z" fill="#0984F0"/>
<path d="M197.154 261.628L164.515 215.353L221.344 187.543L260.921 177.204L260.165 184.699L197.154 261.628Z" fill="#0EACFE"/>
<path d="M305.35 392.902L296.99 458.816L371.384 423.376L305.35 392.902Z" fill="#00ACF5"/>
<path d="M618.47 168.436L651.11 214.711L545.677 233.989L618.47 168.436Z" fill="#0984F0"/>
<path d="M227.291 394.656L121.858 413.933L169.261 463.368L227.291 394.656Z" fill="#0060DC"/>
<path d="M204.17 195.062L262.2 126.349L297.597 172.579L204.17 195.062Z" fill="#04FFC9"/>
<path d="M447.603 252.296L532.67 295.727L541.03 229.813L447.603 252.296Z" fill="#0BD4FF"/>
<path d="M651.891 154.407L634.994 231.652L736.958 197.838L651.891 154.407Z" fill="#116FF7"/>
<path d="M713.403 329.771L760.806 379.206L668.269 431.395L686.322 369.951L713.403 329.771Z" fill="#22BBFF"/>
<path d="M276.932 391.234L201.292 366.178L293.83 313.988L276.932 391.234Z" fill="#0EACFE"/>
<path d="M438.846 317.991L514.441 370.18L540.811 284.176L438.846 317.991Z" fill="#0060DC"/>
<path d="M181.177 433.236L256.817 458.292L167.392 506.96L172.417 452.062L181.177 433.236Z" fill="#0060DC"/>
<path d="M479.932 301.293L404.337 249.104L402.069 336.733L479.932 301.293Z" fill="#0BD4FF"/>
<path d="M228.796 422.714L139.371 471.382L226.528 510.343L228.796 422.714Z" fill="#04FFC9"/>
<path d="M670.825 336.785L592.962 372.225L675.316 385.995L670.825 336.785Z" fill="#04FFC9"/>
<path d="M563.19 427.975L569.504 497.681L588.981 534.611L650.346 466.936L563.19 427.975Z" fill="#0060DC"/>
<path d="M594.783 236.828L627.022 309.288L533.417 304.503L594.783 236.828Z" fill="#0984F0"/>
<path d="M277.768 464.542L195.413 450.772L227.652 523.232L277.768 464.542Z" fill="#005FF4"/>
<path d="M771.596 321.003L800.678 394.772L848.303 427.052L865.201 325.788L771.596 321.003Z" fill="#0BD4FF"/>
<path d="M587.708 393.722L637.823 335.032L674.153 374.896L587.708 393.722Z" fill="#00ACF5"/>
<path d="M667.653 396.409L699.403 445.212L650.755 497.673L667.653 396.409Z" fill="#04FFC9"/>
<path d="M735.449 329.771L680.754 397.4L649.004 348.597L735.449 329.771Z" fill="#0060DC"/>
<path d="M339.021 518.401L427.645 544.09L393.716 450.772L339.021 518.401Z" fill="#0BD4FF"/>
<path d="M364.902 515.657L316.254 568.117L375.619 617.281L409.325 617.011L364.902 515.657Z" fill="#0EACFE"/>
<path d="M408.381 357.213L319.757 331.525L364.18 432.878L408.381 357.213Z" fill="#0984F0"/>
<path d="M428.992 381.001L473.46 308.948L395.063 287.684L428.992 381.001Z" fill="#0EACFE"/>
<path d="M184.906 556.249L229.106 480.584L273.663 572.728L194.199 573.811L184.906 556.249Z" fill="#005FF4"/>
<path d="M348.463 454.279L384.882 523.353L303.995 526.333L348.463 454.279Z" fill="#04FFC9"/>
<path d="M623.508 654.621L659.838 559.498L578.951 562.477L623.508 654.621Z" fill="#0060DC"/>
<path d="M382.804 340.293L471.917 391.308L419.223 409.367L382.804 340.293Z" fill="#0984F0"/>
<path d="M505.396 579.215L541.726 484.091L595.532 568.019L531.01 596.325L505.396 579.215Z" fill="#04FFC9"/>
<path d="M502.048 399.917L449.354 417.975L503.16 501.902L502.048 399.917Z" fill="#0EACFE"/>
<path d="M512.402 480.069L585.596 440.25L601.515 531.085L512.402 480.069Z" fill="#005FF4"/>
<path d="M442.507 467.954L484.617 399.105L426.587 377.119L442.507 467.954Z" fill="#00ACF5"/>
<path d="M416.079 570.476L523.824 598.015L458.19 501.627L416.079 570.476Z" fill="#0060DC"/>
<path d="M663.015 433.236L770.76 460.775L721.712 511.746L664.126 535.222L663.015 433.236Z" fill="#0BD4FF"/>
<path d="M334.629 377.105L310.172 291.191L276.599 355.118L334.629 377.105Z" fill="#22BBFF"/>
<path d="M793.448 418.207L782.108 308.727L727.813 321.82L793.448 418.207Z" fill="#2792FC"/>
<path d="M501.894 343.8L580.646 416.621L526.351 429.714L501.894 343.8Z" fill="#04FFC9"/>
<path d="M736.57 429.728L821.681 452.437L747.909 539.208L736.57 429.728Z" fill="#0EACFE"/>
<path d="M260.837 282.072L355.109 235.074L339.589 354.893L260.837 282.072Z" fill="#0984F0"/>
<path d="M821.681 572.956L815.1 491.106L736.57 550.248L821.681 572.956Z" fill="#0BD4FF"/>
<path d="M555.942 305.22L540.423 425.039L618.953 365.897L555.942 305.22Z" fill="#0060DC"/>
</g>
<defs>
<filter id="filter0_f_535_285" x="0.915894" y="0.0441895" width="964.285" height="754.577" filterUnits="userSpaceOnUse" color-interpolation-filters="sRGB">
<feFlood flood-opacity="0" result="BackgroundImageFix"/>
<feBlend mode="normal" in="SourceGraphic" in2="BackgroundImageFix" result="shape"/>
<feGaussianBlur stdDeviation="50" result="effect1_foregroundBlur_535_285"/>
</filter>
</defs>
</svg>
