<svg width="44" height="45" viewBox="0 0 44 45" fill="none" xmlns="http://www.w3.org/2000/svg">
<g clip-path="url(#clip0_472_1654)">
<path d="M40.073 16.4436C41.7065 14.8101 42.6241 12.5946 42.6241 10.2845C42.6241 7.97437 41.7065 5.75888 40.073 4.1254C38.4395 2.4919 36.2241 1.57422 33.9139 1.57422C31.6037 1.57422 29.3883 2.4919 27.7548 4.1254L9.27665 22.6035C7.67774 24.2029 6.64019 26.2773 6.31948 28.516L5.58615 33.6897L1.88465 37.3857C1.5582 37.7125 1.37483 38.1557 1.37483 38.6177C1.37483 39.0797 1.5582 39.5228 1.88465 39.8497L4.34865 42.3137C4.67555 42.6402 5.11867 42.8235 5.58065 42.8235C6.04265 42.8235 6.48575 42.6402 6.81265 42.3137L10.5086 38.6177L15.6823 37.8843C17.921 37.5637 19.9954 36.5262 21.5948 34.9272L40.073 16.4436Z" stroke="black" stroke-width="2.5" stroke-linecap="round" stroke-linejoin="round"/>
<path d="M17.8988 4.12524L40.073 26.2995" stroke="black" stroke-width="1.5" stroke-linecap="round" stroke-linejoin="round"/>
<path d="M12.9727 31.2256L24.0588 20.1394" stroke="black" stroke-width="2.5" stroke-linecap="round" stroke-linejoin="round"/>
</g>
<defs>
<clipPath id="clip0_472_1654">
<rect width="44" height="44" fill="white" transform="translate(0 0.198242)"/>
</clipPath>
</defs>
</svg>
