<svg width="44" height="44" viewBox="0 0 44 44" fill="none" xmlns="http://www.w3.org/2000/svg">
<path d="M19.6663 32.2136L18.5045 34C10.4659 28.5966 6 22.0315 6 16.6281C6 11.4034 9.84137 8.94679 13.1011 8.94679C17.2097 8.94679 20.1122 12.4309 20.1122 16.0922C20.1122 19.1733 18.1472 21.8085 15.512 22.7917C14.7531 23.0604 14.0386 23.2833 14.0386 24.5781C14.0386 26.2301 15.2447 28.6852 19.6663 32.2136ZM37.3955 32.2136L36.2337 34C28.2837 28.5966 23.7292 22.0315 23.7292 16.6281C23.7292 11.4034 27.6592 8.94679 30.9189 8.94679C35.0718 8.94679 38.02 12.4309 38.02 16.0922C38.02 19.1733 36.0107 21.8085 33.2855 22.7917C32.5266 23.0604 31.8564 23.2833 31.8564 24.5781C31.8564 26.2301 33.1068 28.6867 37.3941 32.2151L37.3955 32.2136Z" fill="white"/>
</svg>
