<svg width="80" height="80" viewBox="0 0 80 80" fill="none" xmlns="http://www.w3.org/2000/svg">
<path d="M59.301 34.1833C58.0965 35.2624 56.7999 36.2588 55.5132 37.2379C53.6017 38.6926 53.9717 38.8932 51.871 37.3749C47.4236 34.1607 40.9097 28.8787 39.1601 23.4381C37.5709 18.4961 41.3441 13.2586 46.5506 13.0013C49.26 12.8902 51.857 14.2831 53.3519 16.5587C53.5101 16.3943 53.6262 16.1739 53.7661 15.9916C58.6131 9.67011 68.0231 14.2207 67.6074 21.7781C67.3635 26.2111 62.3707 31.4583 59.301 34.1833ZM46.3136 14.7191C43.081 15.0497 40.17 18.2999 40.5185 21.6111C40.9699 25.8999 46.365 30.8368 49.609 33.4379L53.1005 36.1011C53.8085 36.6283 53.5235 36.5162 54.3926 35.8638C56.2637 34.4593 58.0714 32.9582 59.7497 31.3272C62.0269 29.0626 65.8367 24.9083 65.8604 21.5318C65.9067 14.8923 57.7282 11.8936 54.4335 18.2387C54.2725 18.5488 54.1412 18.9993 53.9106 19.2529C53.0322 20.2192 52.2307 18.1717 51.9749 17.7689C50.7755 15.8809 48.6195 14.4503 46.3136 14.7191Z" fill="#1C274C" stroke="#1C274C" stroke-width="2"/>
<path opacity="0.5" d="M57.8981 52.8986C56.8045 53.7503 55.6519 54.5086 54.4835 55.2521L48.3515 58.7714C46.0785 59.9566 43.5586 61.5483 40.8943 61.3176C38.3619 61.0984 32.4844 58.3239 30.2025 57.2275C28.7385 56.5241 27.3144 55.7334 25.808 55.1234L25.4343 56.4119C25.2968 56.7963 25.09 57.4406 24.6938 57.6183L24.6549 57.6349C24.3945 57.7483 24.0463 57.7314 23.7665 57.7426L17.5156 58.4115C17.7633 60.6699 17.0585 60.3464 15.3014 60.3484L10.927 60.3559C10.3594 60.3701 9.74781 60.5221 9.38463 59.9805L9.31255 59.8758C9.03289 59.3986 9.20079 56.6948 9.20041 56.017L9.12658 38.9265C9.11668 38.0716 8.87664 37.2334 10.0999 37.1906L13.7349 37.1779L15.9435 37.1695C16.2184 37.1685 16.5244 37.0744 16.7578 37.2581C17.2821 37.6708 17.2648 38.8318 17.3283 39.4531C19.0974 39.4771 20.8559 38.9971 22.5674 38.6023L25.389 38.0194C27.614 37.5771 29.678 37.2991 31.9533 37.4806C36.0209 37.805 39.1393 40.57 42.8444 41.9013C44.0875 42.3479 45.3769 42.5956 46.6856 42.7564L49.7914 43.1014C51.3378 43.3359 52.41 43.9461 53.3511 45.2188C55.5629 45.0026 58.341 43.3706 59.9243 41.9391C60.7656 41.1784 61.5199 40.2989 62.3895 39.5736C63.804 38.3941 66.0006 38.1816 67.2325 39.732C69.7841 42.9433 59.936 51.3126 57.8981 52.8986ZM14.3239 38.8643L10.8508 38.868L10.9289 58.6344L13.6209 58.6308L15.8245 58.5593C15.5231 57.022 15.4504 54.0796 15.737 52.6521C16.4871 48.917 17.188 46.8546 16.4044 42.9596C16.1314 41.603 15.6774 40.2476 15.5719 38.8634L14.3239 38.8643ZM29.7863 39.1504C27.5029 39.3173 25.2965 39.781 23.0648 40.2674L21.3994 40.6359C21.1788 40.685 20.946 40.7085 20.7299 40.7728C22.143 41.737 23.0706 43.1204 23.895 44.5998C25.431 47.3563 26.4644 50.2586 26.1989 53.4411C27.8321 54.0525 29.3111 54.9278 30.8789 55.6771L37.7735 58.5996C40.0124 59.4438 41.6071 60.0946 43.9243 59.0415C50.969 55.84 59.1171 50.8865 63.7836 44.7625C64.3686 43.9946 67.4135 40.4074 64.8345 40.3563C63.4608 40.543 62.5348 41.8678 61.607 42.7764C59.2826 45.0524 56.8943 46.2021 53.8041 46.9296C53.7841 48.4544 53.3521 48.7388 52.0681 49.4295C47.5511 51.8598 41.9078 50.3569 37.2271 49.1755C36.7113 49.0453 35.4796 48.8354 35.1336 48.4961C34.584 47.9573 35.0023 46.9351 35.7921 46.9903C36.1965 47.0185 36.62 47.2138 37.0088 47.3286L38.4941 47.7186C41.1421 48.373 45.2105 49.278 47.9578 48.9166C49.3259 48.7366 53.2541 47.7014 51.5633 45.7948C50.6208 44.7321 48.9064 44.7286 47.6014 44.6013L45.669 44.3638C44.2719 44.1569 42.9403 43.831 41.6336 43.2905C38.1744 41.8595 35.0229 39.32 31.153 39.1496L29.7863 39.1504ZM17.7233 41.1915C17.7964 41.784 18.0199 42.386 18.132 42.9784C18.8094 46.5593 18.3906 48.7428 17.6204 52.1946C17.2905 53.6729 17.0581 55.1355 17.3183 56.6574L22.744 56.0399L23.6856 55.9838C24.2198 54.9726 24.4909 53.0956 24.4851 51.9728C24.4674 48.5139 21.6715 42.9999 18.7305 41.4585C18.4786 41.3266 18.0029 41.1133 17.7233 41.1915Z" fill="#1C274C" stroke="#1C274C" stroke-width="2"/>
</svg>
