<svg width="16" height="15" viewBox="0 0 16 15" fill="none" xmlns="http://www.w3.org/2000/svg">
<path d="M7.12147 10.0016L2.72645 14.8629H0.541128L6.12322 8.68687L6.1799 8.62416L6.1275 8.55782L0.206441 1.06289H5.01384L8.4793 5.498L8.55253 5.59173L8.63229 5.50348L12.6453 1.06289H14.8292L9.62014 6.82609L9.56377 6.88847L9.61554 6.95472L15.795 14.8629H11.1111L7.27411 10.0066L7.20079 9.91384L7.12147 10.0016ZM11.6614 13.6034L11.6914 13.6414H11.7399H13.0993H13.3044L13.1781 13.4798L4.40271 2.2482L4.37268 2.20976H4.32391H2.86504H2.65858L2.78658 2.37176L11.6614 13.6034Z" fill="#1D1A5B" stroke="#1D1A5B" stroke-width="0.2"/>
</svg>
