<svg width="44" height="45" viewBox="0 0 44 45" fill="none" xmlns="http://www.w3.org/2000/svg">
<g clip-path="url(#clip0_472_1693)">
<path d="M22.5067 0.383041C22.2137 0.136317 21.787 0.136317 21.494 0.383041C20.8402 0.933809 5.50012 13.9978 5.50012 25.9421C5.50012 37.0331 11.9767 44.1979 22 44.1979C32.0232 44.1979 38.4998 37.0323 38.4998 25.9421C38.4998 13.997 23.1597 0.933809 22.5067 0.383041ZM22 42.6266C14.7825 42.6266 7.07156 38.2447 7.07156 25.9421C7.07156 15.896 19.3333 4.4066 22 2.0283C24.6667 4.40668 36.9284 15.8961 36.9284 25.9421C36.9284 38.2447 29.2175 42.6266 22 42.6266Z" fill="black"/>
<path d="M19.4127 34.5403L18.3017 33.4285L17.2857 34.4444L16.2698 33.4285L15.1588 34.5403L16.1748 35.5554L15.1588 36.5713L16.2698 37.6831L17.2857 36.6672L18.3017 37.6831L19.4127 36.5713L18.3967 35.5554L19.4127 34.5403Z" fill="black"/>
<path d="M19.4127 12.5406L18.3017 11.4287L17.2857 12.4454L16.2698 11.4287L15.1588 12.5406L16.1748 13.5556L15.1588 14.5716L16.2698 15.6833L17.2857 14.6666L18.3017 15.6833L19.4127 14.5716L18.3967 13.5556L19.4127 12.5406Z" fill="black"/>
<path d="M31.1983 34.5403L30.0873 33.4285L29.0713 34.4444L28.0554 33.4285L26.9444 34.5403L27.9603 35.5554L26.9444 36.5713L28.0554 37.6831L29.0713 36.6672L30.0873 37.6831L31.1983 36.5713L30.1823 35.5554L31.1983 34.5403Z" fill="black"/>
<path d="M12.5715 29.2698H11.0001V32.4126H12.5715V29.2698Z" fill="black"/>
<path d="M18.0714 19.0557H16.5V22.1985H18.0714V19.0557Z" fill="black"/>
<path d="M31.0356 26.127C30.2656 26.127 29.5711 26.4475 29.0713 26.9582C28.5716 26.4475 27.8771 26.127 27.1071 26.127C25.5907 26.127 24.3571 27.3605 24.3571 28.8769C24.3571 30.3934 25.5907 31.6269 27.1071 31.6269C27.8771 31.6269 28.5716 31.3071 29.0713 30.7956C29.5711 31.3071 30.2656 31.6269 31.0356 31.6269C32.552 31.6269 33.7856 30.3934 33.7856 28.8769C33.7856 27.3605 32.552 26.127 31.0356 26.127ZM27.1071 30.0555C26.4573 30.0555 25.9286 29.5267 25.9286 28.8769C25.9286 28.2272 26.4573 27.6984 27.1071 27.6984C27.7569 27.6984 28.2856 28.2272 28.2856 28.8769C28.2856 29.5267 27.7569 30.0555 27.1071 30.0555ZM31.0356 30.0555C30.3858 30.0555 29.8571 29.5267 29.8571 28.8769C29.8571 28.2272 30.3858 27.6984 31.0356 27.6984C31.6854 27.6984 32.2141 28.2279 32.2141 28.8769C32.2141 29.5267 31.6854 30.0555 31.0356 30.0555Z" fill="black"/>
<path d="M27.1071 12.77C24.2911 12.77 21.9999 15.062 21.9999 17.8771C21.9999 20.6923 24.2911 22.9843 27.1071 22.9843C29.923 22.9843 32.2142 20.6931 32.2142 17.8771C32.2142 15.0612 29.923 12.77 27.1071 12.77ZM23.5957 18.1144C23.5792 18.0382 23.5714 17.9589 23.5714 17.8771C23.5714 17.7954 23.5792 17.7169 23.5957 17.6399C23.7057 17.1032 24.181 16.6986 24.7499 16.6986C25.3997 16.6986 25.9284 17.2274 25.9284 17.8771C25.9284 18.5269 25.3997 19.0557 24.7499 19.0557C24.1811 19.0557 23.7057 18.6511 23.5957 18.1144ZM27.1071 21.4128C26.2656 21.4128 25.5019 21.1048 24.8945 20.6122C26.3426 20.5352 27.5 19.3449 27.5 17.8771C27.5 16.4094 26.3427 15.2191 24.8945 15.1421C25.5019 14.6495 26.2656 14.3415 27.1071 14.3415C29.0564 14.3415 30.6428 15.9278 30.6428 17.8771C30.6428 19.8265 29.0564 21.4128 27.1071 21.4128Z" fill="black"/>
<path d="M20.4286 26.9126H18.8572V28.484H20.4286V26.9126Z" fill="black"/>
<path d="M12.5715 18.2698H11.0001V19.8412H12.5715V18.2698Z" fill="black"/>
<path d="M23.3421 7.50041L22.231 8.61157L24.5882 10.9689L25.6994 9.8577L23.3421 7.50041Z" fill="black"/>
<path d="M23.0145 38.1456L20.6572 40.5029L21.7684 41.6141L24.1257 39.2568L23.0145 38.1456Z" fill="black"/>
<path d="M23.5714 33.9839H21.9999V35.5553H23.5714V33.9839Z" fill="black"/>
<path d="M10.2144 24.5554H8.64301V26.1269H10.2144V24.5554Z" fill="black"/>
<path d="M14.9286 23.7698C13.6291 23.7698 12.5715 24.8273 12.5715 26.1269C12.5715 27.4265 13.629 28.4841 14.9286 28.4841C16.2282 28.4841 17.2858 27.4266 17.2858 26.1269C17.2857 24.8274 16.2282 23.7698 14.9286 23.7698ZM14.9286 26.9127C14.4949 26.9127 14.1429 26.5607 14.1429 26.1269C14.1429 25.6932 14.4949 25.3412 14.9286 25.3412C15.3624 25.3412 15.7143 25.6932 15.7143 26.1269C15.7143 26.5607 15.3623 26.9127 14.9286 26.9127Z" fill="black"/>
<path d="M34.5713 22.1985H32.9999V23.7699H34.5713V22.1985Z" fill="black"/>
<path d="M19.6429 8.05566H18.0715V9.6271H19.6429V8.05566Z" fill="black"/>
</g>
<defs>
<clipPath id="clip0_472_1693">
<rect width="44" height="44" fill="white" transform="translate(0 0.198242)"/>
</clipPath>
</defs>
</svg>
