<svg width="80" height="80" viewBox="0 0 80 80" fill="none" xmlns="http://www.w3.org/2000/svg">
<path opacity="0.5" d="M33.3333 33.3332C40.6971 33.3332 46.6667 27.3636 46.6667 19.9998C46.6667 12.636 40.6971 6.6665 33.3333 6.6665C25.9695 6.6665 20 12.636 20 19.9998C20 27.3636 25.9695 33.3332 33.3333 33.3332Z" stroke="#1C274C" stroke-width="4"/>
<path opacity="0.5" d="M60 58.3335C60 66.6178 60 73.3335 33.3333 73.3335C6.66667 73.3335 6.66667 66.6178 6.66667 58.3335C6.66667 50.0492 18.6057 43.3335 33.3333 43.3335C48.061 43.3335 60 50.0492 60 58.3335Z" stroke="#1C274C" stroke-width="4"/>
<path d="M63.3333 28.8119L61.5603 30.5745C62.0297 31.0465 62.6677 31.3119 63.3333 31.3119C63.999 31.3119 64.637 31.0465 65.1063 30.5745L63.3333 28.8119ZM61.8117 39.8078C60.1903 38.5701 58.73 37.5801 57.553 36.2971C56.4623 35.1081 55.8333 33.8795 55.8333 32.3326H50.8333C50.8333 35.4938 52.214 37.8735 53.8687 39.6771C55.437 41.3871 57.4573 42.7741 58.7783 43.7825L61.8117 39.8078ZM55.8333 32.3326C55.8333 30.9593 56.6327 29.8491 57.6577 29.3955C58.545 29.0028 59.958 28.9626 61.5603 30.5745L65.1063 27.0493C62.209 24.135 58.6217 23.5011 55.6343 24.8233C52.784 26.0846 50.8333 28.9978 50.8333 32.3326H55.8333ZM58.7783 43.7825C59.275 44.1611 59.9187 44.6531 60.5977 45.0371C61.2773 45.4218 62.2187 45.8335 63.3333 45.8335V40.8335C63.448 40.8335 63.3893 40.8718 63.0597 40.6855C62.729 40.4985 62.3537 40.2211 61.8117 39.8078L58.7783 43.7825ZM67.8883 43.7825C69.2093 42.7741 71.2297 41.3871 72.798 39.6771C74.4527 37.8735 75.8333 35.4938 75.8333 32.3326H70.8333C70.8333 33.8795 70.2043 35.1081 69.1137 36.2971C67.9367 37.5801 66.4763 38.5701 64.855 39.8078L67.8883 43.7825ZM75.8333 32.3326C75.8333 28.9978 73.8827 26.0846 71.0323 24.8233C68.045 23.5011 64.4577 24.135 61.5603 27.0493L65.1063 30.5745C66.7087 28.9626 68.1217 29.0028 69.009 29.3955C70.034 29.8491 70.8333 30.9593 70.8333 32.3326H75.8333ZM64.855 39.8078C64.313 40.2211 63.9377 40.4985 63.607 40.6855C63.2773 40.8718 63.2187 40.8335 63.3333 40.8335V45.8335C64.448 45.8335 65.3893 45.4218 66.069 45.0371C66.748 44.6531 67.3917 44.1611 67.8883 43.7825L64.855 39.8078Z" fill="#1C274C"/>
</svg>
